<svg width="313" height="775" viewBox="0 0 313 775" fill="none" xmlns="http://www.w3.org/2000/svg">
<g id="well-barrier">
<g id="tree-cap">
<rect id="Rectangle 1" x="131.136" y="0.5" width="53.2943" height="16.1847" rx="2.5" fill="white" stroke="black"/>
<path id="Vector 1" d="M136.454 0V16.5482" stroke="black"/>
<path id="Vector 2" d="M146.795 0V16.5482" stroke="black"/>
<path id="Vector 3" d="M157.784 0V16.5482" stroke="black"/>
<path id="Vector 4" d="M168.772 0V16.5482" stroke="black"/>
<path id="Vector 5" d="M179.76 0V16.5482" stroke="black"/>
</g>
<g id="cv">
<ellipse id="Ellipse 1" cx="18.0981" cy="17.8176" rx="18.0981" ry="17.8176" transform="matrix(0.712538 -0.701634 0.712538 0.701634 131.929 39.8417)" fill="white" stroke="black"/>
<path id="Vector 6" d="M145.029 27.3451L170.36 52.2881" stroke="black"/>
<path id="Vector 7" d="M144.829 52.5447L170.413 27.3531" stroke="black"/>
</g>
<g id="umv">
<ellipse id="Ellipse 1_2" cx="18.0981" cy="18.0511" rx="18.0981" ry="18.0511" transform="matrix(0.712538 -0.701634 0.712538 0.701634 131.929 111.126)" stroke="black"/>
<path id="Vector 6_2" d="M145.032 98.6323L170.29 124.145" stroke="black"/>
<path id="Vector 7_2" d="M144.999 123.996L170.582 98.8042" stroke="black"/>
</g>
<g id="lmv">
<ellipse id="Ellipse 1_3" cx="18.0981" cy="18.0981" rx="18.0981" ry="18.0981" transform="matrix(0.712538 -0.701634 0.712538 0.701634 131.929 149.314)" fill="white" stroke="black"/>
<path id="Vector 6_3" d="M145.032 136.821L170.363 161.764" stroke="black"/>
<path id="Vector 7_3" d="M145.032 162.217L170.616 137.026" stroke="black"/>
</g>
<g id="kwv">
<circle id="Ellipse 1_4" cx="18.0981" cy="18.0981" r="18.0981" transform="matrix(0.712538 -0.701634 0.712538 0.701634 95.0864 75.484)" fill="white" stroke="black"/>
<path id="Vector 6_4" d="M108.19 62.9905L133.521 87.9335" stroke="black"/>
<path id="Vector 7_4" d="M108.19 88.3871L133.773 63.1954" stroke="black"/>
</g>
<g id="fwv">
<ellipse id="Ellipse 1_5" cx="18.0981" cy="18.0511" rx="18.0981" ry="18.0511" transform="matrix(0.712538 -0.701634 0.712538 0.701634 168.125 75.484)" fill="white" stroke="black"/>
<path id="Vector 6_5" d="M181.228 62.9901L206.486 88.5029" stroke="black"/>
<path id="Vector 7_5" d="M181.195 88.3536L206.778 63.1619" stroke="black"/>
</g>
<g id="tree-body">
<path id="Vector 9" d="M139.039 57.2823V22.913H116.865L103.489 35.4374V57.2823H139.039Z" stroke="black"/>
<path id="Vector 13" d="M175.882 57.2823V22.913H198.46L212.078 35.4374V57.2823H175.882Z" stroke="black"/>
<path id="Vector 10" d="M139.039 23.2312V17.1847" stroke="black"/>
<path id="Vector 11" d="M175.882 23.2312V17.1847" stroke="black"/>
<path id="Vector 18" d="M102.843 93.5611H71.1713" stroke="black"/>
<path id="Vector 19" d="M103.489 57.2822H71.8176" stroke="black"/>
<path id="Vector 22" d="M102.52 149.53L70.5249 167.202V169.993H139.039V93.7223H102.52V149.53Z" fill="white" stroke="black"/>
<path id="Vector 23" d="M212.401 149.53L244.396 167.202V169.993H175.882V93.7223H212.401V149.53Z" fill="white" stroke="black"/>
<g id="kwv-flange">
<rect id="Rectangle 3" x="217.102" y="50.1447" width="8.69541" height="49.9176" stroke="black"/>
<g id="Rectangle 5">
<mask id="path-31-inside-1_39_48" fill="white">
<path d="M226.298 55.373H228.883V59.1918H226.298V55.373Z"/>
</mask>
<path d="M228.883 55.373H229.883V54.373H228.883V55.373ZM228.883 59.1918V60.1918H229.883V59.1918H228.883ZM226.298 56.373H228.883V54.373H226.298V56.373ZM227.883 55.373V59.1918H229.883V55.373H227.883ZM228.883 58.1918H226.298V60.1918H228.883V58.1918Z" fill="black" mask="url(#path-31-inside-1_39_48)"/>
</g>
<g id="Rectangle 6">
<mask id="path-33-inside-2_39_48" fill="white">
<path d="M226.298 91.6517H228.883V95.4705H226.298V91.6517Z"/>
</mask>
<path d="M228.883 91.6517H229.883V90.6517H228.883V91.6517ZM228.883 95.4705V96.4705H229.883V95.4705H228.883ZM226.298 92.6517H228.883V90.6517H226.298V92.6517ZM227.883 91.6517V95.4705H229.883V91.6517H227.883ZM228.883 94.4705H226.298V96.4705H228.883V94.4705Z" fill="black" mask="url(#path-33-inside-2_39_48)"/>
</g>
<g id="Rectangle 7">
<mask id="path-35-inside-3_39_48" fill="white">
<path d="M226.298 64.2836H228.883V68.1024H226.298V64.2836Z"/>
</mask>
<path d="M228.883 64.2836H229.883V63.2836H228.883V64.2836ZM228.883 68.1024V69.1024H229.883V68.1024H228.883ZM226.298 65.2836H228.883V63.2836H226.298V65.2836ZM227.883 64.2836V68.1024H229.883V64.2836H227.883ZM228.883 67.1024H226.298V69.1024H228.883V67.1024Z" fill="black" mask="url(#path-35-inside-3_39_48)"/>
</g>
<g id="Rectangle 8">
<mask id="path-37-inside-4_39_48" fill="white">
<path d="M226.298 73.8306H228.883V77.6494H226.298V73.8306Z"/>
</mask>
<path d="M228.883 73.8306H229.883V72.8306H228.883V73.8306ZM228.883 77.6494V78.6494H229.883V77.6494H228.883ZM226.298 74.8306H228.883V72.8306H226.298V74.8306ZM227.883 73.8306V77.6494H229.883V73.8306H227.883ZM228.883 76.6494H226.298V78.6494H228.883V76.6494Z" fill="black" mask="url(#path-37-inside-4_39_48)"/>
</g>
<g id="Rectangle 9">
<mask id="path-39-inside-5_39_48" fill="white">
<path d="M226.298 82.1047H228.883V85.9235H226.298V82.1047Z"/>
</mask>
<path d="M228.883 82.1047H229.883V81.1047H228.883V82.1047ZM228.883 85.9235V86.9235H229.883V85.9235H228.883ZM226.298 83.1047H228.883V81.1047H226.298V83.1047ZM227.883 82.1047V85.9235H229.883V82.1047H227.883ZM228.883 84.9235H226.298V86.9235H228.883V84.9235Z" fill="black" mask="url(#path-39-inside-5_39_48)"/>
</g>
</g>
<path id="Vector 24" d="M212.401 93.7223H216.926" stroke="black"/>
<path id="Vector 25" d="M212.078 57.2029H216.925" stroke="black"/>
</g>
<g id="fwv-arrows">
<path id="Arrow 1" d="M64 75.2808L69 78.1676L69 72.3941L64 75.2808ZM86 74.7808L68.5 74.7808L68.5 75.7808L86 75.7808L86 74.7808Z" fill="black"/>
<path id="Arrow 3" d="M64 86.9153L69 89.8021L69 84.0286L64 86.9153ZM86 86.4153L68.5 86.4153L68.5 87.4153L86 87.4153L86 86.4153Z" fill="black"/>
<path id="Arrow 2" d="M64 63L69 65.8868L69 60.1133L64 63ZM86 62.5L68.5 62.5L68.5 63.5L86 63.5L86 62.5Z" fill="black"/>
</g>
<g id="tubing">
<path d="M139 170H176V695H139V170Z" fill="white"/>
<path d="M175.5 170V695H176.5V170H175.5ZM139.5 695V170H138.5V695H139.5Z" fill="black"/>
</g>
<g id="scssv">
<ellipse id="Ellipse 1_6" cx="18.0981" cy="18.0981" rx="18.0981" ry="18.0981" transform="matrix(0.712538 -0.701634 0.712538 0.701634 131.929 364.396)" fill="white" stroke="black"/>
<path id="Vector 6_6" d="M145.032 351.903L170.363 376.846" stroke="black"/>
<path id="Vector 7_6" d="M145.032 377.3L170.616 352.108" stroke="black"/>
</g>
<g id="a-ann">
<g id="left-seal">
<rect id="Rectangle 10" x="70.5249" y="169.793" width="15.5127" height="15.29" fill="white" stroke="black"/>
<path id="Vector 20" d="M70.5249 169.793L86.0376 185.083" stroke="black"/>
<path id="Vector 21" d="M86.0376 169.793L70.5249 185.083" stroke="black"/>
</g>
<g id="right-seal">
<rect id="Rectangle 10_2" x="228.998" y="169.793" width="15.3982" height="15.29" fill="white" stroke="black"/>
<path id="Vector 20_2" d="M228.998 169.793L244.396 185.083" stroke="black"/>
<path id="Vector 21_2" d="M244.396 169.793L228.998 185.083" stroke="black"/>
</g>
<path id="Vector 26" d="M86.0375 185.083L139.039 211.84" stroke="black"/>
<path id="Vector 27" d="M228.883 185.083L175.882 211.84" stroke="black"/>
<g id="a-ann-seal">
<g id="Group 1">
<path id="Vector 28" d="M86.0375 206.107L118.356 221.397" stroke="black"/>
<path id="Vector 29" d="M118 221.054L118 774" stroke="black"/>
</g>
<g id="a-ann-valve">
<path id="Vector 30" d="M70.8479 185.083H11.0596" stroke="black"/>
<path id="Vector 31" d="M70.5247 206.107H11.0596" stroke="black"/>
<path id="Vector 6_7" d="M35.2856 186.645L53.3789 204.206" stroke="black"/>
<path id="Vector 7_7" d="M35.2856 204.525L53.5593 186.79" stroke="black"/>
<ellipse id="Ellipse 1_7" cx="12.8362" cy="12.8362" rx="12.8362" ry="12.8362" transform="matrix(0.71759 -0.696465 0.71759 0.696465 25.9259 195.441)" stroke="black"/>
</g>
</g>
<g id="a-ann-seal_2">
<g id="Group 1_2">
<path id="Vector 28_2" d="M86.0375 206.107L118.356 221.397" stroke="black"/>
</g>
<g id="a-ann-valve_2">
<path id="Vector 30_2" d="M70.8479 185.083H11.0596" stroke="black"/>
<ellipse id="Ellipse 1_8" cx="12.8362" cy="12.8362" rx="12.8362" ry="12.8362" transform="matrix(0.71759 -0.696465 0.71759 0.696465 25.9259 195.441)" fill="white" stroke="black"/>
<path id="Vector 6_8" d="M35.2856 186.645L53.3789 204.206" stroke="black"/>
<path id="Vector 7_8" d="M35.2856 204.525L53.5593 186.79" stroke="black"/>
</g>
</g>
<path id="Vector 40" d="M118 773.014L197 773.014" stroke="black" stroke-width="2"/>
<g id="a-ann-seal_3">
<g id="Group 1_3">
<path id="Vector 28_3" d="M229.53 206.107L197.212 221.397" stroke="black"/>
<path id="Vector 29_2" d="M197 221.054L197 774" stroke="black"/>
</g>
</g>
<g id="a-ann-plug">
<rect id="rect" x="248.274" y="185.083" width="8.40269" height="21.0237" fill="#808080" stroke="black"/>
<path id="Vector 33" d="M245.042 206.107H248.597" stroke="black"/>
<path id="Vector 34" d="M244.719 185.083H248.274" stroke="black"/>
</g>
<path id="Polygon 9" d="M110 774L118 770.057L118 774L110 774Z" fill="black"/>
<path id="Polygon 10" d="M205 774L197 770.057L197 774L205 774Z" fill="black"/>
<g id="a-ann-cement">
<g id="a-ann-cement-left">
<line id="Line 61" y1="-0.5" x2="21.1279" y2="-0.5" transform="matrix(0.751486 -0.65975 -0.010577 0.999944 102 668.676)" stroke="black"/>
<line id="Line 62" y1="-0.5" x2="21.1279" y2="-0.5" transform="matrix(0.751486 -0.65975 -0.010577 0.999944 102 597.71)" stroke="black"/>
<line id="Line 66" y1="-0.5" x2="21.1279" y2="-0.5" transform="matrix(0.751486 -0.65975 -0.010577 0.999944 102 633.193)" stroke="black"/>
<line id="Line 78" y1="-0.5" x2="21.1279" y2="-0.5" transform="matrix(0.751486 -0.65975 -0.010577 0.999944 102 686.418)" stroke="black"/>
<line id="Line 79" y1="-0.5" x2="21.1279" y2="-0.5" transform="matrix(0.751486 -0.65975 -0.010577 0.999944 102 615.451)" stroke="black"/>
<line id="Line 80" y1="-0.5" x2="21.1279" y2="-0.5" transform="matrix(0.751486 -0.65975 -0.010577 0.999944 102 579.968)" stroke="black"/>
<line id="Line 83" y1="-0.5" x2="21.1279" y2="-0.5" transform="matrix(0.751486 -0.65975 -0.010577 0.999944 102 650.935)" stroke="black"/>
<line id="Line 84" y1="-0.5" x2="21.1279" y2="-0.5" transform="matrix(0.751486 -0.65975 -0.010577 0.999944 103.123 740.628)" stroke="black"/>
<line id="Line 86" y1="-0.5" x2="21.1279" y2="-0.5" transform="matrix(0.751486 -0.65975 -0.010577 0.999944 103.123 705.145)" stroke="black"/>
<line id="Line 87" y1="-0.5" x2="21.1279" y2="-0.5" transform="matrix(0.751486 -0.65975 -0.010577 0.999944 103.123 758.37)" stroke="black"/>
<line id="Line 90" y1="-0.5" x2="21.1279" y2="-0.5" transform="matrix(0.751486 -0.65975 -0.010577 0.999944 103.123 722.887)" stroke="black"/>
</g>
<g id="a-ann-cement-right">
<line id="Line 61_2" y1="-0.5" x2="21.1279" y2="-0.5" transform="matrix(0.751486 0.65975 -0.010577 -0.999944 197 655.723)" stroke="black"/>
<line id="Line 62_2" y1="-0.5" x2="21.1279" y2="-0.5" transform="matrix(0.751486 0.65975 -0.010577 -0.999944 197 726.689)" stroke="black"/>
<line id="Line 66_2" y1="-0.5" x2="21.1279" y2="-0.5" transform="matrix(0.751486 0.65975 -0.010577 -0.999944 197 691.206)" stroke="black"/>
<line id="Line 78_2" y1="-0.5" x2="21.1279" y2="-0.5" transform="matrix(0.751486 0.65975 -0.010577 -0.999944 197 637.981)" stroke="black"/>
<line id="Line 79_2" y1="-0.5" x2="21.1279" y2="-0.5" transform="matrix(0.751486 0.65975 -0.010577 -0.999944 197 708.948)" stroke="black"/>
<line id="Line 80_2" y1="-0.5" x2="21.1279" y2="-0.5" transform="matrix(0.751486 0.65975 -0.010577 -0.999944 197 744.431)" stroke="black"/>
<line id="Line 83_2" y1="-0.5" x2="21.1279" y2="-0.5" transform="matrix(0.751486 0.65975 -0.010577 -0.999944 197 673.464)" stroke="black"/>
<line id="Line 84_2" y1="-0.5" x2="21.1279" y2="-0.5" transform="matrix(0.751486 0.65975 -0.010577 -0.999944 198.123 583.771)" stroke="black"/>
<line id="Line 86_2" y1="-0.5" x2="21.1279" y2="-0.5" transform="matrix(0.751486 0.65975 -0.010577 -0.999944 198.123 619.254)" stroke="black"/>
<line id="Line 87_2" y1="-0.5" x2="21.1279" y2="-0.5" transform="matrix(0.751486 0.65975 -0.010577 -0.999944 198.123 566.029)" stroke="black"/>
<line id="Line 90_2" y1="-0.5" x2="21.1279" y2="-0.5" transform="matrix(0.751486 0.65975 -0.010577 -0.999944 198.123 601.512)" stroke="black"/>
</g>
</g>
</g>
<g id="b-ann">
<g id="Group 4">
<path id="Vector 31_2" d="M70.3674 243.382H10.9022" stroke="black"/>
<g id="Group 2">
<path id="Vector 30_3" d="M85.3911 243.032L100.257 250.788" stroke="black"/>
<path id="Vector 32" d="M100 251V578" stroke="black"/>
</g>
</g>
<path id="Vector 30_4" d="M70.6906 222.052H10.9022" stroke="black"/>
<g id="b-ann-valve">
<ellipse id="Ellipse 1_9" cx="12.9272" cy="12.9272" rx="12.9272" ry="12.9272" transform="matrix(0.712538 -0.701634 0.712538 0.701634 25.7686 232.561)" fill="white" stroke="black"/>
<path id="Vector 6_9" d="M35.1283 223.637L53.2216 241.454" stroke="black"/>
<path id="Vector 7_9" d="M35.1283 241.778L53.402 223.784" stroke="black"/>
</g>
<g id="left-seal_2">
<rect id="Rectangle 10_3" x="70.5248" y="206.835" width="15.5127" height="15.5127" fill="white" stroke="black"/>
<path id="Vector 20_3" d="M70.5248 206.835L86.0374 222.348" stroke="black"/>
<path id="Vector 21_3" d="M86.0375 206.835L70.5248 222.348" stroke="black"/>
</g>
<g id="Group 3">
<path id="Vector 30_5" d="M229.53 243.678L214.663 251.415" stroke="#020202"/>
<path id="Vector 32_2" d="M215 251L215 578" stroke="#020202"/>
</g>
<g id="b-ann-seal">
<g id="left-seal_3">
<rect id="Rectangle 10_4" x="229.53" y="206.835" width="15.3982" height="15.5127" fill="white" stroke="black"/>
<path id="Vector 20_4" d="M229.53 206.835L244.928 222.348" stroke="black"/>
<path id="Vector 21_4" d="M244.928 206.835L229.53 222.348" stroke="black"/>
</g>
</g>
<g id="b-ann-plug">
<rect id="rect_2" x="248.597" y="222.348" width="8.40269" height="21.3299" fill="#808080" stroke="black"/>
<path id="Vector 33_2" d="M245.366 243.678H248.921" stroke="black"/>
<path id="Vector 34_2" d="M245.042 222.348H248.597" stroke="black"/>
</g>
<path id="Polygon 7" d="M92 578L100 574L100 578L92 578Z" fill="black"/>
<path id="Polygon 8" d="M223 578L215 574L215 578L223 578Z" fill="black"/>
<g id="b-ann-cement">
<g id="b-ann-cement-left">
<line id="Line 61_3" y1="-0.5" x2="20" y2="-0.5" transform="matrix(0.707107 -0.707107 -0.00928593 0.999957 85 564.021)" stroke="black"/>
<line id="Line 62_3" y1="-0.5" x2="20" y2="-0.5" transform="matrix(0.707107 -0.707107 -0.00928593 0.999957 85 492.021)" stroke="black"/>
<line id="Line 66_3" y1="-0.5" x2="20" y2="-0.5" transform="matrix(0.707107 -0.707107 -0.00928593 0.999957 85 528.021)" stroke="black"/>
<line id="Line 78_3" x1="88.085" y1="577.279" x2="99.2078" y2="566.156" stroke="black"/>
<line id="Line 79_3" y1="-0.5" x2="20" y2="-0.5" transform="matrix(0.707107 -0.707107 -0.00928593 0.999957 85 510.021)" stroke="black"/>
<line id="Line 80_3" y1="-0.5" x2="20" y2="-0.5" transform="matrix(0.707107 -0.707107 -0.00928593 0.999957 85 474.021)" stroke="black"/>
<line id="Line 83_3" y1="-0.5" x2="20" y2="-0.5" transform="matrix(0.707107 -0.707107 -0.00928593 0.999957 85 546.021)" stroke="black"/>
</g>
<g id="b-ann-cement-right">
<line id="Line 62_4" y1="-0.5" x2="20" y2="-0.5" transform="matrix(0.707107 0.707107 -0.00928593 -0.999957 215 511)" stroke="black"/>
<line id="Line 63" y1="-0.5" x2="20" y2="-0.5" transform="matrix(0.707107 0.707107 -0.00928593 -0.999957 215 547)" stroke="black"/>
<line id="Line 66_4" y1="-0.5" x2="20" y2="-0.5" transform="matrix(0.707107 0.707107 -0.00928593 -0.999957 215 475)" stroke="black"/>
<line id="Line 75" x1="215.354" y1="564.646" x2="226.354" y2="575.646" stroke="black"/>
<line id="Line 79_4" y1="-0.5" x2="20" y2="-0.5" transform="matrix(0.707107 0.707107 -0.00928593 -0.999957 215 493)" stroke="black"/>
<line id="Line 80_4" y1="-0.5" x2="20" y2="-0.5" transform="matrix(0.707107 0.707107 -0.00928593 -0.999957 215 529)" stroke="black"/>
<line id="Line 83_4" y1="-0.5" x2="20" y2="-0.5" transform="matrix(0.707107 0.707107 -0.00928593 -0.999957 215 457)" stroke="black"/>
</g>
</g>
</g>
<g id="c-ann">
<rect id="rect_3" x="248.597" y="259.191" width="8.40269" height="21.3299" fill="#808080" stroke="black"/>
<path id="Vector 35" d="M85 280L85 500" stroke="black"/>
<rect id="rect_4" x="57.8903" y="279.874" width="8.40269" height="21.9763" fill="#808080" stroke="black"/>
<line id="Line 1" x1="229.5" y1="280" x2="229.5" y2="500" stroke="black"/>
<line id="Line 2" x1="229.529" y1="280.02" x2="248.274" y2="280.02" stroke="black"/>
<g id="c-casing">
<path id="Vector 36" d="M66 302H73V434" stroke="black"/>
<path id="Polygon 2" d="M65 434L73 430L73 434L65 434Z" fill="black"/>
<path id="Polygon 3" d="M250 434L242 430L242 434L250 434Z" fill="black"/>
<path id="Vector 37" d="M249 302H242V434" stroke="black"/>
<path id="Polygon 4" d="M77 500L85 496L85 500L77 500Z" fill="black"/>
<path id="Polygon 6" d="M237 500L229 496L229 500L237 500Z" fill="black"/>
<path id="Polygon 5" d="M250 434L242 430L242 434L250 434Z" fill="black"/>
</g>
<rect id="rect_5" x="248.597" y="280.52" width="8.40269" height="21.3299" fill="#808080" stroke="black"/>
<g id="c-ann-valve">
<path id="Vector 30_6" d="M70.6906 258.248H10.9022" stroke="black"/>
<path id="Vector 31_3" d="M85.391 279.874H11.0596" stroke="black"/>
<ellipse id="Ellipse 1_10" cx="12.9272" cy="12.9272" rx="12.9272" ry="12.9272" transform="matrix(0.712538 -0.701634 0.712538 0.701634 25.7686 268.757)" fill="white" stroke="black"/>
<path id="Vector 6_10" d="M35.1283 259.834L53.2216 277.65" stroke="black"/>
<path id="Vector 7_10" d="M35.1283 277.974L53.402 259.98" stroke="black"/>
</g>
<g id="left-seal_4">
<rect id="Rectangle 10_5" x="70.5248" y="243.032" width="15.5127" height="15.5127" fill="white" stroke="black"/>
<path id="Vector 20_5" d="M70.5248 243.678L86.0374 258.544" stroke="black"/>
<path id="Vector 21_5" d="M86.0375 243.032L70.5248 258.544" stroke="black"/>
</g>
<g id="right-seal_2">
<rect id="Rectangle 10_6" x="229.529" y="243.678" width="15.5127" height="15.5127" fill="white" stroke="black"/>
<path id="Vector 20_6" d="M229.529 243.678L245.042 259.191" stroke="black"/>
<path id="Vector 21_6" d="M245.042 243.678L229.53 259.191" stroke="black"/>
</g>
<g id="c-ann-plug">
<rect id="rect_6" x="248.597" y="259.191" width="8.40269" height="21.3299" fill="#808080" stroke="black"/>
<path id="Vector 34_3" d="M245.042 259.191H248.597" stroke="black"/>
</g>
<g id="c-ann-cement">
<g id="c-ann-cement-left">
<line id="Line 58" y1="-0.5" x2="17" y2="-0.5" transform="matrix(0.707107 -0.707107 -0.00928593 0.999957 73 306.021)" stroke="black"/>
<line id="Line 60" y1="-0.5" x2="17" y2="-0.5" transform="matrix(0.707107 -0.707107 -0.00928593 0.999957 73 486.021)" stroke="black"/>
<line id="Line 61_4" y1="-0.5" x2="17" y2="-0.5" transform="matrix(0.707107 -0.707107 -0.00928593 0.999957 73 450.021)" stroke="black"/>
<line id="Line 62_5" y1="-0.5" x2="17" y2="-0.5" transform="matrix(0.707107 -0.707107 -0.00928593 0.999957 73 378.021)" stroke="black"/>
<line id="Line 63_2" y1="-0.5" x2="17" y2="-0.5" transform="matrix(0.707107 -0.707107 -0.00928593 0.999957 73 342.021)" stroke="black"/>
<line id="Line 66_5" y1="-0.5" x2="17" y2="-0.5" transform="matrix(0.707107 -0.707107 -0.00928593 0.999957 73 414.021)" stroke="black"/>
<line id="Line 75_2" y1="-0.5" x2="17" y2="-0.5" transform="matrix(0.707107 -0.707107 -0.00928593 0.999957 73 324.021)" stroke="black"/>
<line id="Line 78_4" y1="-0.5" x2="17" y2="-0.5" transform="matrix(0.707107 -0.707107 -0.00928593 0.999957 73 468.021)" stroke="black"/>
<line id="Line 79_5" y1="-0.5" x2="17" y2="-0.5" transform="matrix(0.707107 -0.707107 -0.00928593 0.999957 73 396.021)" stroke="black"/>
<line id="Line 80_5" y1="-0.5" x2="17" y2="-0.5" transform="matrix(0.707107 -0.707107 -0.00928593 0.999957 73 360.021)" stroke="black"/>
<line id="Line 83_5" y1="-0.5" x2="17" y2="-0.5" transform="matrix(0.707107 -0.707107 -0.00928593 0.999957 73 432.021)" stroke="black"/>
</g>
<g id="c-ann-cement-right">
<line id="Line 58_2" y1="-0.5" x2="17" y2="-0.5" transform="matrix(0.707107 0.707107 -0.00928593 -0.999957 230 472)" stroke="black"/>
<line id="Line 60_2" y1="-0.5" x2="17" y2="-0.5" transform="matrix(0.707107 0.707107 -0.00928593 -0.999957 230 292)" stroke="black"/>
<line id="Line 61_5" y1="-0.5" x2="17" y2="-0.5" transform="matrix(0.707107 0.707107 -0.00928593 -0.999957 230 328)" stroke="black"/>
<line id="Line 62_6" y1="-0.5" x2="17" y2="-0.5" transform="matrix(0.707107 0.707107 -0.00928593 -0.999957 230 400)" stroke="black"/>
<line id="Line 63_3" y1="-0.5" x2="17" y2="-0.5" transform="matrix(0.707107 0.707107 -0.00928593 -0.999957 230 436)" stroke="black"/>
<line id="Line 66_6" y1="-0.5" x2="17" y2="-0.5" transform="matrix(0.707107 0.707107 -0.00928593 -0.999957 230 364)" stroke="black"/>
<line id="Line 75_3" y1="-0.5" x2="17" y2="-0.5" transform="matrix(0.707107 0.707107 -0.00928593 -0.999957 230 454)" stroke="black"/>
<line id="Line 78_5" y1="-0.5" x2="17" y2="-0.5" transform="matrix(0.707107 0.707107 -0.00928593 -0.999957 230 310)" stroke="black"/>
<line id="Line 79_6" y1="-0.5" x2="17" y2="-0.5" transform="matrix(0.707107 0.707107 -0.00928593 -0.999957 230 382)" stroke="black"/>
<line id="Line 80_6" y1="-0.5" x2="17" y2="-0.5" transform="matrix(0.707107 0.707107 -0.00928593 -0.999957 230 418)" stroke="black"/>
<line id="Line 83_6" y1="-0.5" x2="17" y2="-0.5" transform="matrix(0.707107 0.707107 -0.00928593 -0.999957 230 346)" stroke="black"/>
</g>
</g>
</g>
<g id="scssv-control-line">
<line id="Line 3" x1="186.723" y1="169.993" x2="186.723" y2="364" stroke="black" stroke-dasharray="3 3"/>
<line id="Line 4" x1="186.223" y1="363.921" x2="175.882" y2="363.921" stroke="black" stroke-dasharray="3 3"/>
</g>
<g id="ssv-control-line">
<line id="Line 3_2" y1="-0.5" x2="152.884" y2="-0.5" transform="matrix(6.17238e-08 1 1 -3.09554e-08 129 170)" stroke="black" stroke-dasharray="3 3"/>
<line id="Line 4_2" y1="-0.5" x2="10.3418" y2="-0.5" transform="matrix(1 -6.1726e-08 -1.23817e-07 -1 129 322.428)" stroke="black" stroke-dasharray="3 3"/>
</g>
<path id="ssv" d="M175.321 292L158 322L140.679 292L175.321 292Z" fill="white" stroke="black"/>
<g id="sea-level">
<line id="Line 5" x1="1" y1="397.5" x2="74" y2="397.5" stroke="black"/>
<line id="Line 6" x1="241" y1="397.5" x2="313" y2="397.5" stroke="black"/>
<g id="waves 1">
<g id="Group">
<path id="Vector" d="M242.91 335.378L242.956 335.409L243.001 335.436L243.047 335.457L243.092 335.474L243.138 335.485L243.183 335.491L243.229 335.492L243.274 335.488L243.32 335.479L243.365 335.465L243.411 335.445L243.456 335.421L243.502 335.391L243.547 335.357L243.593 335.318L243.638 335.275L243.684 335.227L243.73 335.175L243.775 335.119L243.821 335.059L243.866 334.995L243.912 334.928L243.957 334.858L244.003 334.784L244.048 334.708L244.094 334.63L244.139 334.549L244.185 334.467L244.23 334.383L244.276 334.297L244.321 334.211L244.367 334.123L244.412 334.036L244.458 333.948L244.503 333.86L244.549 333.773L244.594 333.687L244.64 333.602L244.685 333.518L244.731 333.436L244.776 333.355L244.822 333.277L244.867 333.202L244.913 333.129L244.958 333.059L245.004 332.993L245.049 332.93L245.095 332.87L245.14 332.815L245.186 332.764L245.231 332.717L245.277 332.674L245.322 332.636L245.368 332.603L245.413 332.574L245.459 332.551L245.505 332.532L245.55 332.519L245.596 332.511L245.641 332.507L245.687 332.51L245.732 332.517L245.778 332.529L245.823 332.546L245.869 332.569L245.914 332.596L245.96 332.628L246.005 332.665L246.051 332.707L246.096 332.753L246.142 332.803L246.187 332.858L246.233 332.916L246.278 332.979L246.324 333.044L246.369 333.113L246.415 333.185L246.46 333.26L246.506 333.338L246.551 333.418L246.597 333.499L246.642 333.583L246.688 333.668L246.733 333.754L246.779 333.841L246.824 333.929L246.87 334.016L246.915 334.104L246.961 334.191L247.006 334.278L247.052 334.364L247.097 334.448L247.143 334.531L247.188 334.612L247.234 334.691L247.28 334.768L247.325 334.842L247.371 334.913L247.416 334.981L247.462 335.045L247.507 335.106L247.553 335.163L247.598 335.216L247.644 335.265L247.689 335.309L247.735 335.349L247.78 335.384L247.826 335.415L247.871 335.44L247.917 335.461L247.962 335.476L248.008 335.487L248.053 335.492L248.099 335.492L248.144 335.487L248.19 335.477L248.235 335.461L248.281 335.441L248.326 335.416L248.372 335.385L248.417 335.35L248.463 335.311L248.508 335.266L248.554 335.218L248.599 335.165L248.645 335.108L248.69 335.047L248.736 334.983L248.781 334.915L248.827 334.844L248.872 334.77L248.918 334.694L248.963 334.615L249.009 334.534L249.055 334.451L249.1 334.367L249.146 334.281L249.191 334.194L249.237 334.107L249.282 334.019L249.328 333.932L249.373 333.844L249.419 333.757L249.464 333.671L249.51 333.586L249.555 333.502L249.601 333.42L249.646 333.341L249.692 333.263L249.737 333.188L249.783 333.116L249.828 333.047L249.874 332.981L249.919 332.918L249.965 332.86L250.01 332.805L250.056 332.755L250.101 332.708L250.147 332.667L250.192 332.63L250.238 332.597L250.283 332.57L250.329 332.547L250.374 332.529L250.42 332.517L250.465 332.51L250.511 332.507L250.556 332.51L250.602 332.519L250.647 332.532L250.693 332.55L250.738 332.573L250.784 332.602L250.83 332.635L250.875 332.673L250.921 332.715L250.966 332.762L251.012 332.813L251.057 332.868L251.103 332.928L251.148 332.99L251.194 333.057L251.239 333.126L251.285 333.199L251.33 333.275L251.376 333.353L251.421 333.433L251.467 333.515L251.512 333.599L251.558 333.684L251.603 333.77L251.649 333.857L251.694 333.945L251.74 334.033L251.785 334.12L251.831 334.208L251.876 334.294L251.922 334.38L251.967 334.464L252.013 334.546L252.058 334.627L252.104 334.706L252.149 334.782L252.195 334.855L252.24 334.926L252.286 334.993L252.331 335.057L252.377 335.117L252.422 335.173L252.468 335.225L252.513 335.273L252.559 335.317L252.605 335.356L252.65 335.39L252.696 335.42L252.741 335.444L252.787 335.464L252.832 335.479L252.878 335.488L252.923 335.492L252.969 335.491L253.014 335.485L253.06 335.474L253.105 335.458L253.151 335.437L253.196 335.41L253.242 335.379L253.287 335.343L253.333 335.303L253.378 335.258L253.424 335.208L253.469 335.155L253.515 335.097L253.56 335.036L253.606 334.971L253.651 334.902L253.697 334.831L253.742 334.756L253.788 334.679L253.833 334.6L253.879 334.519L253.924 334.436L253.97 334.351L254.015 334.265L254.061 334.178L254.106 334.091L254.152 334.003L254.197 333.915L254.243 333.828L254.288 333.741L254.334 333.655L254.38 333.57L254.425 333.487L254.471 333.405L254.516 333.326L254.562 333.249L254.607 333.174L254.653 333.103L254.698 333.034L254.744 332.969L254.789 332.907L254.835 332.849L254.88 332.795L254.926 332.746L254.971 332.7L255.017 332.659L255.062 332.623L255.108 332.592L255.153 332.565L255.199 332.543L255.244 332.527L255.29 332.515L255.335 332.509L255.381 332.508L255.426 332.512L255.472 332.521L255.517 332.535L255.563 332.554L255.608 332.578L255.654 332.608L255.699 332.642L255.745 332.68L255.79 332.724L255.836 332.771L255.881 332.823L255.927 332.879L255.972 332.939L256.018 333.003L256.063 333.07L256.109 333.14L256.155 333.213L256.2 333.289L256.246 333.367L256.291 333.448L256.337 333.53L256.382 333.614L256.428 333.7L256.473 333.786L256.519 333.874L256.564 333.961L256.61 334.049L256.655 334.137L256.701 334.224L256.746 334.31L256.792 334.395L256.837 334.479L256.883 334.562L256.928 334.642L256.974 334.72L257.019 334.796L257.065 334.868L257.11 334.938L257.156 335.005L257.201 335.068L257.247 335.128L257.292 335.183L257.338 335.235L257.383 335.282L257.429 335.324L257.474 335.363L257.52 335.396L257.565 335.425L257.611 335.448L257.656 335.467L257.702 335.481L257.747 335.489L257.793 335.492L257.838 335.491L257.884 335.484L257.93 335.472L257.975 335.454L258.021 335.432L258.066 335.405L258.112 335.373L258.157 335.336L258.203 335.295L258.248 335.249L258.294 335.199L258.339 335.144L258.385 335.086L258.43 335.024L258.476 334.958L258.521 334.889L258.567 334.817L258.612 334.742L258.658 334.665L258.703 334.585L258.749 334.503L258.794 334.42L258.84 334.335L258.885 334.249L258.931 334.162L258.976 334.075L259.022 333.987L259.067 333.899L259.113 333.812L259.158 333.725L259.204 333.639L259.249 333.555L259.295 333.472L259.34 333.391L259.386 333.312L259.431 333.235L259.477 333.161L259.522 333.09L259.568 333.022L259.613 332.957L259.659 332.896L259.705 332.839L259.75 332.786L259.796 332.737L259.841 332.692L259.887 332.652L259.932 332.617L259.978 332.586L260.023 332.561L260.069 332.54L260.114 332.524L260.16 332.514L260.205 332.508L260.251 332.508L260.296 332.513L260.342 332.523L260.387 332.538L260.433 332.558L260.478 332.583L260.524 332.614L260.569 332.648L260.615 332.688L260.66 332.732L260.706 332.781L260.751 332.833L260.797 332.89L260.842 332.951L260.888 333.015L260.933 333.082L260.979 333.153L261.024 333.227L261.07 333.303L261.115 333.382L261.161 333.463L261.206 333.546L261.252 333.63L261.297 333.716L261.343 333.802L261.388 333.89L261.434 333.977L261.48 334.065L261.525 334.153L261.571 334.24L261.616 334.326L261.662 334.411L261.707 334.495L261.753 334.577L261.798 334.657L261.844 334.734L261.889 334.809L261.935 334.882L261.98 334.951L262.026 335.017L262.071 335.079L262.117 335.138L262.162 335.193L262.208 335.244L262.253 335.29L262.299 335.332L262.344 335.369L262.39 335.402L262.435 335.429L262.481 335.452L262.526 335.47L262.572 335.483L262.617 335.49L262.663 335.493L262.708 335.49L262.754 335.482L262.799 335.469L262.845 335.451L262.89 335.427L262.936 335.399L262.981 335.366L263.027 335.329L263.072 335.286L263.118 335.24L263.163 335.189L263.209 335.134L263.255 335.075L263.3 335.012L263.346 334.946L263.391 334.876L263.437 334.803L263.482 334.728L263.528 334.65L263.573 334.57L263.619 334.488L263.664 334.404L263.71 334.319L263.755 334.233L263.801 334.146L263.846 334.058L263.892 333.97L263.937 333.883L263.983 333.796L264.028 333.709L264.074 333.623L264.119 333.539L264.165 333.456L264.21 333.376L264.256 333.297L264.301 333.221L264.347 333.147L264.392 333.077L264.438 333.01L264.483 332.946L264.529 332.885L264.574 332.829L264.62 332.777L264.665 332.728L264.711 332.685L264.756 332.645L264.802 332.611L264.847 332.581L264.893 332.556L264.938 332.537L264.984 332.522L265.03 332.512L265.075 332.508L265.121 332.508L265.166 332.514L265.212 332.525L265.257 332.541L265.303 332.563L265.348 332.589L265.394 332.62L265.439 332.655L265.485 332.696L265.53 332.741L265.576 332.79L265.621 332.843L265.667 332.901L265.712 332.962L265.758 333.027L265.803 333.095L265.849 333.167L265.894 333.241L265.94 333.318L265.985 333.397L266.031 333.478L266.076 333.561L266.122 333.646L266.167 333.732L266.213 333.819L266.258 333.906L266.304 333.994L266.349 334.082L266.395 334.169L266.44 334.256L266.486 334.342L266.531 334.427L266.577 334.51L266.622 334.592L266.668 334.671L266.713 334.748L266.759 334.823L266.805 334.895L266.85 334.963L266.896 335.029L266.941 335.091L266.987 335.149L267.032 335.203L267.078 335.253L267.123 335.298L267.169 335.339L267.214 335.376L267.26 335.407L267.305 335.434L267.351 335.456L267.396 335.473L267.442 335.484L267.487 335.491L267.533 335.492L267.578 335.489L267.624 335.48L267.669 335.466L267.715 335.447L267.76 335.423L267.806 335.394L267.851 335.36L267.897 335.321L267.942 335.278L267.988 335.231L268.033 335.179L268.079 335.123L268.124 335.063L268.17 335L268.215 334.933L268.261 334.863L268.306 334.79L268.352 334.714L268.397 334.636L268.443 334.555L268.488 334.473L268.534 334.389L268.58 334.303L268.625 334.217L268.671 334.13L268.716 334.042L268.762 333.954L268.807 333.867L268.853 333.779L268.898 333.693L268.944 333.608L268.989 333.524L269.035 333.441L269.08 333.361L269.126 333.283L269.171 333.207L269.217 333.134L269.262 333.064L269.308 332.997L269.353 332.934L269.399 332.875L269.444 332.819L269.49 332.767L269.535 332.72L269.581 332.677L269.626 332.639L269.672 332.605L269.717 332.576L269.763 332.552L269.808 332.534L269.854 332.52L269.899 332.511L269.945 332.508L269.99 332.509L270.036 332.516L270.081 332.528L270.127 332.545L270.172 332.567L270.218 332.594L270.263 332.626L270.309 332.663L270.355 332.704L270.4 332.75L270.446 332.8L270.491 332.854L270.537 332.912L270.582 332.974L270.628 333.039L270.673 333.108L270.719 333.18L270.764 333.255L270.81 333.332L270.855 333.412L270.901 333.494L270.946 333.577L270.992 333.662L271.037 333.748L271.083 333.835L271.128 333.922L271.174 334.01L271.219 334.098L271.265 334.185L271.31 334.272L271.356 334.358L271.401 334.442L271.447 334.525L271.492 334.607L271.538 334.686L271.583 334.762L271.629 334.837L271.674 334.908L271.72 334.976L271.765 335.041L271.811 335.102L271.856 335.159L271.902 335.212L271.947 335.261L271.993 335.306L272.038 335.346L272.084 335.382L272.13 335.413L272.175 335.438L272.221 335.459L272.266 335.475L272.312 335.486L272.357 335.492L272.403 335.492L272.448 335.487L272.494 335.478L272.539 335.463L272.585 335.443L272.63 335.418L272.676 335.388L272.721 335.353L272.767 335.314L272.812 335.27L272.858 335.221L272.903 335.169L272.949 335.112L272.994 335.052L273.04 334.988L273.085 334.92L273.131 334.849L273.176 334.776L273.222 334.699L273.267 334.621L273.313 334.54L273.358 334.457L273.404 334.373L273.449 334.287L273.495 334.201L273.54 334.113L273.586 334.026L273.631 333.938L273.677 333.85L273.722 333.763L273.768 333.677L273.813 333.592L273.859 333.508L273.905 333.426L273.95 333.346L273.996 333.268L274.041 333.193L274.087 333.121L274.132 333.051L274.178 332.985L274.223 332.923L274.269 332.864L274.314 332.809L274.36 332.758L274.405 332.712L274.451 332.67L274.496 332.632L274.542 332.599L274.587 332.571L274.633 332.548L274.678 332.531L274.724 332.518L274.769 332.51L274.815 332.507L274.86 332.51L274.906 332.518L274.951 332.531L274.997 332.549L275.042 332.572L275.088 332.6L275.133 332.632L275.179 332.67L275.224 332.712L275.27 332.759L275.315 332.809L275.361 332.864L275.406 332.923L275.452 332.986L275.497 333.052L275.543 333.121L275.588 333.194L275.634 333.269L275.68 333.347L275.725 333.427L275.771 333.509L275.816 333.593L275.862 333.678L275.907 333.764L275.953 333.851L275.998 333.939L276.044 334.026L276.089 334.114L276.135 334.201L276.18 334.288L276.226 334.374L276.271 334.458L276.317 334.541L276.362 334.621L276.408 334.7L276.453 334.776L276.499 334.85L276.544 334.921L276.59 334.988L276.635 335.052L276.681 335.113L276.726 335.169L276.772 335.222L276.817 335.27L276.863 335.314L276.908 335.353L276.954 335.388L276.999 335.418L277.045 335.443L277.09 335.463L277.136 335.478L277.181 335.487L277.227 335.492L277.272 335.492L277.318 335.486L277.363 335.475L277.409 335.459L277.455 335.438L277.5 335.412L277.546 335.382L277.591 335.346L277.637 335.306L277.682 335.261L277.728 335.212L277.773 335.158L277.819 335.101L277.864 335.04L277.91 334.975L277.955 334.907L278.001 334.836L278.046 334.762L278.092 334.685L278.137 334.606L278.183 334.525L278.228 334.442L278.274 334.357L278.319 334.271L278.365 334.184L278.41 334.097L278.456 334.009L278.501 333.922L278.547 333.834L278.592 333.747L278.638 333.661L278.683 333.576L278.729 333.493L278.774 333.411L278.82 333.332L278.865 333.254L278.911 333.18L278.956 333.108L279.002 333.039L279.047 332.973L279.093 332.912L279.138 332.853L279.184 332.799L279.23 332.749L279.275 332.703L279.321 332.662L279.366 332.626L279.412 332.594L279.457 332.567L279.503 332.545L279.548 332.528L279.594 332.516L279.639 332.509L279.685 332.508L279.73 332.511L279.776 332.52L279.821 332.534L279.867 332.553L279.912 332.576L279.958 332.605L280.003 332.639L280.049 332.677L280.094 332.72L280.14 332.768L280.185 332.819L280.231 332.875L280.276 332.935L280.322 332.998L280.367 333.065L280.413 333.135L280.458 333.208L280.504 333.283L280.549 333.362L280.595 333.442L280.64 333.524L280.686 333.608L280.731 333.694L280.777 333.78L280.822 333.867L280.868 333.955L280.913 334.043L280.959 334.13L281.005 334.218L281.05 334.304L281.096 334.389L281.141 334.473L281.187 334.556L281.232 334.636L281.278 334.715L281.323 334.79L281.369 334.863L281.414 334.933L281.46 335L281.505 335.064L281.551 335.123L281.596 335.179L281.642 335.231L281.687 335.278L281.733 335.322L281.778 335.36L281.824 335.394L281.869 335.423L281.915 335.447L281.96 335.466L282.006 335.48L282.051 335.489L282.097 335.492L282.142 335.491L282.188 335.484L282.233 335.473L282.279 335.456L282.324 335.434L282.37 335.407L282.415 335.375L282.461 335.339L282.506 335.298L282.552 335.252L282.597 335.202L282.643 335.148L282.688 335.09L282.734 335.028L282.78 334.963L282.825 334.894L282.871 334.822L282.916 334.748L282.962 334.67L283.007 334.591L283.053 334.509L283.098 334.426L283.144 334.341L283.189 334.255L283.235 334.168L283.28 334.081L283.326 333.993L283.371 333.905L283.417 333.818L283.462 333.731L283.508 333.645L283.553 333.561L283.599 333.478L283.644 333.396L283.69 333.317L283.735 333.24L283.781 333.166L283.826 333.095L283.872 333.026L283.917 332.962L283.963 332.9L284.008 332.843L284.054 332.79L284.099 332.74L284.145 332.695L284.19 332.655L284.236 332.619L284.281 332.588L284.327 332.562L284.372 332.541L284.418 332.525L284.463 332.514L284.509 332.508L284.555 332.508L284.6 332.512L284.646 332.522L284.691 332.537L284.737 332.557L284.782 332.581L284.828 332.611L284.873 332.646L284.919 332.685L284.964 332.729L285.01 332.777L285.055 332.829L285.101 332.886L285.146 332.946L285.192 333.01L285.237 333.077L285.283 333.148L285.328 333.222L285.374 333.298L285.419 333.376L285.465 333.457L285.51 333.54L285.556 333.624L285.601 333.71L285.647 333.796L285.692 333.884L285.738 333.971L285.783 334.059L285.829 334.147L285.874 334.234L285.92 334.32L285.965 334.405L286.011 334.489L286.056 334.571L286.102 334.651L286.147 334.729L286.193 334.804L286.238 334.877L286.284 334.946L286.33 335.012L286.375 335.075L286.421 335.134L286.466 335.189L286.512 335.24L286.557 335.287L286.603 335.329L286.648 335.367L286.694 335.4L286.739 335.428L286.785 335.451L286.83 335.469L286.876 335.482L286.921 335.49L286.967 335.493L287.012 335.49L287.058 335.483L287.103 335.47L287.149 335.452L287.194 335.429L287.24 335.401L287.285 335.369L287.331 335.332L287.376 335.29L287.422 335.243L287.467 335.192L287.513 335.138L287.558 335.079L287.604 335.016L287.649 334.95L287.695 334.881L287.74 334.809L287.786 334.734L287.831 334.656L287.877 334.576L287.922 334.494L287.968 334.41L288.013 334.325L288.059 334.239L288.105 334.152L288.15 334.064L288.196 333.977L288.241 333.889L288.287 333.802L288.332 333.715L288.378 333.629L288.423 333.545L288.469 333.462L288.514 333.381L288.56 333.303L288.605 333.226L288.651 333.153L288.696 333.082L288.742 333.014L288.787 332.95L288.833 332.889L288.878 332.833L288.924 332.78L288.969 332.732L289.015 332.688L289.06 332.648L289.106 332.613L289.151 332.583L289.197 332.558L289.242 332.538L289.288 332.523L289.333 332.513L289.379 332.508L289.424 332.508L289.47 332.514L289.515 332.524L289.561 332.54L289.606 332.561L289.652 332.587L289.697 332.617L289.743 332.653L289.788 332.693L289.834 332.737L289.88 332.786L289.925 332.84L289.971 332.897L290.016 332.958L290.062 333.022L290.107 333.09L290.153 333.161L290.198 333.236L290.244 333.312L290.289 333.391L290.335 333.472L290.38 333.555L290.426 333.64L290.471 333.726L290.517 333.812L290.562 333.9L290.608 333.988L290.653 334.075L290.699 334.163L290.744 334.25L290.79 334.336L290.835 334.421L290.881 334.504L290.926 334.586L290.972 334.666L291.017 334.743L291.063 334.818L291.108 334.89L291.154 334.959L291.199 335.024L291.245 335.086L291.29 335.145L291.336 335.199L291.381 335.249L291.427 335.295L291.472 335.336L291.518 335.373L291.563 335.405L291.609 335.432L291.655 335.455L291.7 335.472L291.746 335.484L291.791 335.491L291.837 335.492L291.882 335.489L291.928 335.481L291.973 335.467L292.019 335.448L292.064 335.424L292.11 335.396L292.155 335.362L292.201 335.324L292.246 335.281L292.292 335.234L292.337 335.183L292.383 335.127L292.428 335.068L292.474 335.004L292.519 334.938L292.565 334.868L292.61 334.795L292.656 334.719L292.701 334.641L292.747 334.561L292.792 334.479L292.838 334.395L292.883 334.309L292.929 334.223L292.974 334.136L293.02 334.048L293.065 333.96L293.111 333.873L293.156 333.786L293.202 333.699L293.247 333.614L293.293 333.53L293.338 333.447L293.384 333.367L293.43 333.288L293.475 333.212L293.521 333.139L293.566 333.069L293.612 333.002L293.657 332.938L293.703 332.879L293.748 332.823L293.794 332.771L293.839 332.723L293.885 332.68L293.93 332.641L293.976 332.607L294.021 332.578L294.067 332.554L294.112 332.535L294.158 332.521L294.203 332.512L294.249 332.508L294.294 332.509L294.34 332.515L294.385 332.527L294.431 332.544L294.476 332.565L294.522 332.592L294.567 332.624L294.613 332.66L294.658 332.701L294.704 332.746L294.749 332.796L294.795 332.85L294.84 332.908L294.886 332.969L294.931 333.035L294.977 333.103L295.022 333.175L295.068 333.25L295.113 333.327L295.159 333.406L295.205 333.488L295.25 333.571L295.296 333.656L295.341 333.742L295.387 333.829L295.432 333.916L295.478 334.004L295.523 334.092L295.569 334.179L295.614 334.266L295.66 334.352L295.705 334.436L295.751 334.52L295.796 334.601L295.842 334.68L295.887 334.757L295.933 334.831L295.978 334.903L296.024 334.971L296.069 335.036L296.115 335.097L296.16 335.155L296.206 335.209L296.251 335.258L296.297 335.303L296.342 335.344L296.388 335.379L296.433 335.411L296.479 335.437L296.524 335.458L296.57 335.474L296.615 335.485L296.661 335.491L296.706 335.492L296.752 335.488L296.797 335.478L296.843 335.464L296.888 335.444L296.934 335.419L296.98 335.39L297.025 335.356L297.071 335.316L297.116 335.273L297.162 335.225L297.207 335.173L297.253 335.116L297.298 335.056L297.344 334.992L297.389 334.925L297.435 334.855L297.48 334.781L297.526 334.705L297.571 334.626L297.617 334.546L297.662 334.463L297.708 334.379L297.753 334.293L297.799 334.207L297.844 334.12L297.89 334.032L297.935 333.944L297.981 333.856L298.026 333.769L298.072 333.683L298.117 333.598L298.163 333.514L298.208 333.432L298.254 333.352L298.299 333.274L298.345 333.198L298.39 333.126L298.436 333.056L298.481 332.99L298.527 332.927L298.572 332.868L298.618 332.813L298.663 332.762L298.709 332.715L298.755 332.672L298.8 332.635L298.846 332.601L298.891 332.573L298.937 332.55L298.982 332.532L299.028 332.518L299.073 332.51L299.119 332.507L299.164 332.51L299.21 332.517L299.255 332.53L299.301 332.547L299.346 332.57L299.392 332.597L299.437 332.63L299.483 332.667L299.528 332.709L299.574 332.755L299.619 332.806L299.665 332.86L299.71 332.919L299.756 332.981L299.801 333.047L299.847 333.116L299.892 333.189L299.938 333.264L299.983 333.341L300.029 333.421L300.074 333.503L300.12 333.587L300.165 333.672L300.211 333.758L300.256 333.845L300.302 333.932L300.347 334.02L300.393 334.108L300.438 334.195L300.484 334.282L300.53 334.368L300.575 334.452L300.621 334.535L300.666 334.616L300.712 334.695L300.757 334.771L300.803 334.845L300.848 334.916L300.894 334.984L300.939 335.048L300.985 335.108L301.03 335.165L301.076 335.218L301.121 335.267L301.167 335.311L301.212 335.351L301.258 335.386L301.303 335.416L301.349 335.441L301.394 335.461L301.44 335.477L301.485 335.487L301.531 335.492L301.576 335.492L301.622 335.487L301.667 335.476L301.713 335.461L301.758 335.44L301.804 335.414L301.849 335.384L301.895 335.349L301.94 335.309L301.986 335.264L302.031 335.215L302.077 335.162L302.122 335.105L302.168 335.044L302.213 334.98L302.259 334.912L302.305 334.841L302.35 334.767L302.396 334.691L302.441 334.612L302.487 334.53L302.532 334.448L302.578 334.363L302.623 334.277L302.669 334.191L302.714 334.103L302.76 334.016L302.805 333.928L302.851 333.84L302.896 333.753L302.942 333.667L302.987 333.582L303.033 333.499L303.078 333.417L303.124 333.337L303.169 333.26L303.215 333.185L303.26 333.113L303.306 333.044L303.351 332.978L303.397 332.916L303.442 332.857L303.488 332.803L303.533 332.753L303.579 332.707L303.624 332.665L303.67 332.628L303.715 332.596L303.761 332.569L303.806 332.546L303.852 332.529L303.897 332.517L303.943 332.509L303.988 332.507L304.034 332.511L304.08 332.519L304.125 332.533L304.171 332.551L304.216 332.575L304.262 332.603L304.307 332.636L304.353 332.674L304.398 332.717L304.444 332.764L304.489 332.816L304.535 332.871L304.58 332.93L304.626 332.993L304.671 333.06L304.717 333.13L304.762 333.202L304.808 333.278L304.853 333.356L304.899 333.436L304.944 333.519L304.99 333.602L305.035 333.688L305.081 333.774L305.126 333.861L305.172 333.949L305.217 334.037L305.263 334.124L305.308 334.211L305.354 334.298L305.399 334.383L305.445 334.468L305.49 334.55L305.536 334.631L305.581 334.709L305.627 334.785L305.672 334.858L305.718 334.929L305.763 334.996L305.809 335.059L305.855 335.119L305.9 335.175L305.946 335.227L305.991 335.275L306.037 335.319L306.082 335.357L306.128 335.392L306.173 335.421L306.219 335.445L306.264 335.465L306.31 335.479L306.355 335.488L306.401 335.492L306.446 335.491L306.492 335.485L306.537 335.474L306.583 335.457L306.628 335.436L306.674 335.409L306.719 335.378L306.765 335.342L306.81 335.301L306.856 335.255L306.901 335.206L306.947 335.152L306.992 335.094L307.038 335.033L307.083 334.968L307.129 334.899L307.174 334.828L307.22 334.753L307.265 334.676L307.311 334.597L307.356 334.515L307.402 334.432L307.447 334.347L307.493 334.261L307.538 334.174L307.584 334.087L307.63 333.999L307.675 333.911L307.721 333.824L307.766 333.737L307.812 333.651L307.857 333.567L307.903 333.483L307.948 333.402L307.994 333.323L308.039 333.246L308.085 333.171L308.13 333.1L308.176 333.031L308.221 332.966L308.267 332.905L308.312 332.847L308.358 332.793L308.403 332.744L308.449 332.698L308.494 332.658L308.54 332.622L308.585 332.59L308.631 332.564L308.676 332.543L308.722 332.526L308.767 332.515L308.813 332.509L308.858 332.508L308.904 332.512L308.949 332.521L308.995 332.536L309.04 332.555L309.086 332.58L309.131 332.609L309.177 332.643L309.222 332.682L309.268 332.726L309.313 332.773L309.359 332.826L309.405 332.882L309.45 332.942L309.496 333.005L309.541 333.073L309.587 333.143L309.632 333.216L309.678 333.292L309.723 333.371L309.769 333.451L309.814 333.534L309.86 333.618L309.905 333.704L309.951 333.79L309.996 333.877L310.042 333.965L310.087 334.053L310.133 334.14L310.178 334.228L310.224 334.314L310.269 334.399L310.315 334.483L310.36 334.565L310.406 334.645L310.451 334.723L310.497 334.799L310.542 334.872L310.588 334.941L310.633 335.008L310.679 335.071L310.724 335.13L310.77 335.185L310.815 335.237L310.861 335.284L310.906 335.326L310.952 335.364L310.997 335.397L311.043 335.426L311.088 335.449L311.134 335.468L311.18 335.481L311.225 335.489L311.271 335.493L311.316 335.49L311.362 335.483L311.407 335.471L311.453 335.453L311.498 335.431L311.544 335.404L311.589 335.371L311.635 335.334L311.68 335.293L311.726 335.247L311.771 335.196L311.817 335.142L311.862 335.083L311.908 335.021L311.953 334.955L311.999 334.886L312.044 334.814" stroke="#02063B" stroke-miterlimit="10" stroke-linecap="round" stroke-linejoin="round"/>
</g>
</g>
<g id="waves 2">
<g id="Group_2">
<path id="Vector_2" d="M1.9231 335.378L1.96925 335.409L2.0154 335.436L2.06156 335.457L2.10771 335.474L2.15386 335.485L2.20002 335.491L2.24617 335.492L2.29233 335.488L2.33848 335.479L2.38463 335.465L2.43079 335.445L2.47694 335.421L2.5231 335.391L2.56925 335.357L2.6154 335.318L2.66156 335.275L2.70771 335.227L2.75386 335.175L2.80002 335.119L2.84617 335.059L2.89233 334.995L2.93848 334.928L2.98463 334.858L3.03079 334.784L3.07694 334.708L3.1231 334.63L3.16925 334.549L3.2154 334.467L3.26156 334.383L3.30771 334.297L3.35386 334.211L3.40002 334.123L3.44617 334.036L3.49233 333.948L3.53848 333.86L3.58463 333.773L3.63079 333.687L3.67694 333.602L3.7231 333.518L3.76925 333.436L3.8154 333.355L3.86156 333.277L3.90771 333.202L3.95386 333.129L4.00002 333.059L4.04617 332.993L4.09233 332.93L4.13848 332.87L4.18463 332.815L4.23079 332.764L4.27694 332.717L4.3231 332.674L4.36925 332.636L4.4154 332.603L4.46156 332.574L4.50771 332.551L4.55386 332.532L4.60002 332.519L4.64617 332.511L4.69233 332.507L4.73848 332.51L4.78463 332.517L4.83079 332.529L4.87694 332.546L4.9231 332.569L4.96925 332.596L5.0154 332.628L5.06156 332.665L5.10771 332.707L5.15387 332.753L5.20002 332.803L5.24617 332.858L5.29233 332.916L5.33848 332.979L5.38463 333.044L5.43079 333.113L5.47694 333.185L5.5231 333.26L5.56925 333.338L5.6154 333.418L5.66156 333.499L5.70771 333.583L5.75387 333.668L5.80002 333.754L5.84617 333.841L5.89233 333.929L5.93848 334.016L5.98463 334.104L6.03079 334.191L6.07694 334.278L6.1231 334.364L6.16925 334.448L6.2154 334.531L6.26156 334.612L6.30771 334.691L6.35387 334.768L6.40002 334.842L6.44617 334.913L6.49233 334.981L6.53848 335.045L6.58463 335.106L6.63079 335.163L6.67694 335.216L6.7231 335.265L6.76925 335.309L6.8154 335.349L6.86156 335.384L6.90771 335.415L6.95387 335.44L7.00002 335.461L7.04617 335.476L7.09233 335.487L7.13848 335.492L7.18463 335.492L7.23079 335.487L7.27694 335.477L7.3231 335.461L7.36925 335.441L7.4154 335.416L7.46156 335.385L7.50771 335.35L7.55387 335.311L7.60002 335.266L7.64617 335.218L7.69233 335.165L7.73848 335.108L7.78463 335.047L7.83079 334.983L7.87694 334.915L7.9231 334.844L7.96925 334.77L8.0154 334.694L8.06156 334.615L8.10771 334.534L8.15387 334.451L8.20002 334.367L8.24617 334.281L8.29233 334.194L8.33848 334.107L8.38463 334.019L8.43079 333.932L8.47694 333.844L8.5231 333.757L8.56925 333.671L8.6154 333.586L8.66156 333.502L8.70771 333.42L8.75387 333.341L8.80002 333.263L8.84617 333.188L8.89233 333.116L8.93848 333.047L8.98463 332.981L9.03079 332.918L9.07694 332.86L9.1231 332.805L9.16925 332.755L9.2154 332.708L9.26156 332.667L9.30771 332.63L9.35387 332.597L9.40002 332.57L9.44617 332.547L9.49233 332.529L9.53848 332.517L9.58463 332.51L9.63079 332.507L9.67694 332.51L9.7231 332.519L9.76925 332.532L9.8154 332.55L9.86156 332.573L9.90771 332.602L9.95387 332.635L10 332.673L10.0462 332.715L10.0923 332.762L10.1385 332.813L10.1846 332.868L10.2308 332.928L10.2769 332.99L10.3231 333.057L10.3692 333.126L10.4154 333.199L10.4616 333.275L10.5077 333.353L10.5539 333.433L10.6 333.515L10.6462 333.599L10.6923 333.684L10.7385 333.77L10.7846 333.857L10.8308 333.945L10.8769 334.033L10.9231 334.12L10.9692 334.208L11.0154 334.294L11.0616 334.38L11.1077 334.464L11.1539 334.546L11.2 334.627L11.2462 334.706L11.2923 334.782L11.3385 334.855L11.3846 334.926L11.4308 334.993L11.4769 335.057L11.5231 335.117L11.5692 335.173L11.6154 335.225L11.6616 335.273L11.7077 335.317L11.7539 335.356L11.8 335.39L11.8462 335.42L11.8923 335.444L11.9385 335.464L11.9846 335.479L12.0308 335.488L12.0769 335.492L12.1231 335.491L12.1692 335.485L12.2154 335.474L12.2616 335.458L12.3077 335.437L12.3539 335.41L12.4 335.379L12.4462 335.343L12.4923 335.303L12.5385 335.258L12.5846 335.208L12.6308 335.155L12.6769 335.097L12.7231 335.036L12.7692 334.971L12.8154 334.902L12.8616 334.831L12.9077 334.756L12.9539 334.679L13 334.6L13.0462 334.519L13.0923 334.436L13.1385 334.351L13.1846 334.265L13.2308 334.178L13.2769 334.091L13.3231 334.003L13.3692 333.915L13.4154 333.828L13.4616 333.741L13.5077 333.655L13.5539 333.57L13.6 333.487L13.6462 333.405L13.6923 333.326L13.7385 333.249L13.7846 333.174L13.8308 333.103L13.8769 333.034L13.9231 332.969L13.9692 332.907L14.0154 332.849L14.0616 332.795L14.1077 332.746L14.1539 332.7L14.2 332.659L14.2462 332.623L14.2923 332.592L14.3385 332.565L14.3846 332.543L14.4308 332.527L14.4769 332.515L14.5231 332.509L14.5692 332.508L14.6154 332.512L14.6616 332.521L14.7077 332.535L14.7539 332.554L14.8 332.578L14.8462 332.608L14.8923 332.642L14.9385 332.68L14.9846 332.724L15.0308 332.771L15.0769 332.823L15.1231 332.879L15.1692 332.939L15.2154 333.003L15.2616 333.07L15.3077 333.14L15.3539 333.213L15.4 333.289L15.4462 333.367L15.4923 333.448L15.5385 333.53L15.5846 333.614L15.6308 333.7L15.6769 333.786L15.7231 333.874L15.7692 333.961L15.8154 334.049L15.8616 334.137L15.9077 334.224L15.9539 334.31L16 334.395L16.0462 334.479L16.0923 334.562L16.1385 334.642L16.1846 334.72L16.2308 334.796L16.2769 334.868L16.3231 334.938L16.3692 335.005L16.4154 335.068L16.4616 335.128L16.5077 335.183L16.5539 335.235L16.6 335.282L16.6462 335.324L16.6923 335.363L16.7385 335.396L16.7846 335.425L16.8308 335.448L16.8769 335.467L16.9231 335.481L16.9692 335.489L17.0154 335.492L17.0616 335.491L17.1077 335.484L17.1539 335.472L17.2 335.454L17.2462 335.432L17.2923 335.405L17.3385 335.373L17.3846 335.336L17.4308 335.295L17.4769 335.249L17.5231 335.199L17.5692 335.144L17.6154 335.086L17.6616 335.024L17.7077 334.958L17.7539 334.889L17.8 334.817L17.8462 334.742L17.8923 334.665L17.9385 334.585L17.9846 334.503L18.0308 334.42L18.0769 334.335L18.1231 334.249L18.1692 334.162L18.2154 334.075L18.2616 333.987L18.3077 333.899L18.3539 333.812L18.4 333.725L18.4462 333.639L18.4923 333.555L18.5385 333.472L18.5846 333.391L18.6308 333.312L18.6769 333.235L18.7231 333.161L18.7692 333.09L18.8154 333.022L18.8616 332.957L18.9077 332.896L18.9539 332.839L19 332.786L19.0462 332.737L19.0923 332.692L19.1385 332.652L19.1846 332.617L19.2308 332.586L19.2769 332.561L19.3231 332.54L19.3692 332.524L19.4154 332.514L19.4616 332.508L19.5077 332.508L19.5539 332.513L19.6 332.523L19.6462 332.538L19.6923 332.558L19.7385 332.583L19.7846 332.614L19.8308 332.648L19.8769 332.688L19.9231 332.732L19.9692 332.781L20.0154 332.833L20.0616 332.89L20.1077 332.951L20.1539 333.015L20.2 333.082L20.2462 333.153L20.2923 333.227L20.3385 333.303L20.3846 333.382L20.4308 333.463L20.4769 333.546L20.5231 333.63L20.5692 333.716L20.6154 333.802L20.6616 333.89L20.7077 333.977L20.7539 334.065L20.8 334.153L20.8462 334.24L20.8923 334.326L20.9385 334.411L20.9846 334.495L21.0308 334.577L21.0769 334.657L21.1231 334.734L21.1692 334.809L21.2154 334.882L21.2616 334.951L21.3077 335.017L21.3539 335.079L21.4 335.138L21.4462 335.193L21.4923 335.244L21.5385 335.29L21.5846 335.332L21.6308 335.369L21.6769 335.402L21.7231 335.429L21.7692 335.452L21.8154 335.47L21.8616 335.483L21.9077 335.49L21.9539 335.493L22 335.49L22.0462 335.482L22.0923 335.469L22.1385 335.451L22.1846 335.427L22.2308 335.399L22.2769 335.366L22.3231 335.329L22.3692 335.286L22.4154 335.24L22.4616 335.189L22.5077 335.134L22.5539 335.075L22.6 335.012L22.6462 334.946L22.6923 334.876L22.7385 334.803L22.7846 334.728L22.8308 334.65L22.8769 334.57L22.9231 334.488L22.9692 334.404L23.0154 334.319L23.0616 334.233L23.1077 334.146L23.1539 334.058L23.2 333.97L23.2462 333.883L23.2923 333.796L23.3385 333.709L23.3846 333.623L23.4308 333.539L23.4769 333.456L23.5231 333.376L23.5693 333.297L23.6154 333.221L23.6616 333.147L23.7077 333.077L23.7539 333.01L23.8 332.946L23.8462 332.885L23.8923 332.829L23.9385 332.777L23.9846 332.728L24.0308 332.685L24.0769 332.645L24.1231 332.611L24.1693 332.581L24.2154 332.556L24.2616 332.537L24.3077 332.522L24.3539 332.512L24.4 332.508L24.4462 332.508L24.4923 332.514L24.5385 332.525L24.5846 332.541L24.6308 332.563L24.6769 332.589L24.7231 332.62L24.7693 332.655L24.8154 332.696L24.8616 332.741L24.9077 332.79L24.9539 332.843L25 332.901L25.0462 332.962L25.0923 333.027L25.1385 333.095L25.1846 333.167L25.2308 333.241L25.2769 333.318L25.3231 333.397L25.3693 333.478L25.4154 333.561L25.4616 333.646L25.5077 333.732L25.5539 333.819L25.6 333.906L25.6462 333.994L25.6923 334.082L25.7385 334.169L25.7846 334.256L25.8308 334.342L25.8769 334.427L25.9231 334.51L25.9693 334.592L26.0154 334.671L26.0616 334.748L26.1077 334.823L26.1539 334.895L26.2 334.963L26.2462 335.029L26.2923 335.091L26.3385 335.149L26.3846 335.203L26.4308 335.253L26.4769 335.298L26.5231 335.339L26.5693 335.376L26.6154 335.407L26.6616 335.434L26.7077 335.456L26.7539 335.473L26.8 335.484L26.8462 335.491L26.8923 335.492L26.9385 335.489L26.9846 335.48L27.0308 335.466L27.0769 335.447L27.1231 335.423L27.1693 335.394L27.2154 335.36L27.2616 335.321L27.3077 335.278L27.3539 335.231L27.4 335.179L27.4462 335.123L27.4923 335.063L27.5385 335L27.5846 334.933L27.6308 334.863L27.6769 334.79L27.7231 334.714L27.7693 334.636L27.8154 334.555L27.8616 334.473L27.9077 334.389L27.9539 334.303L28 334.217L28.0462 334.13L28.0923 334.042L28.1385 333.954L28.1846 333.867L28.2308 333.779L28.2769 333.693L28.3231 333.608L28.3693 333.524L28.4154 333.441L28.4616 333.361L28.5077 333.283L28.5539 333.207L28.6 333.134L28.6462 333.064L28.6923 332.997L28.7385 332.934L28.7846 332.875L28.8308 332.819L28.8769 332.767L28.9231 332.72L28.9693 332.677L29.0154 332.639L29.0616 332.605L29.1077 332.576L29.1539 332.552L29.2 332.534L29.2462 332.52L29.2923 332.511L29.3385 332.508L29.3846 332.509L29.4308 332.516L29.4769 332.528L29.5231 332.545L29.5693 332.567L29.6154 332.594L29.6616 332.626L29.7077 332.663L29.7539 332.704L29.8 332.75L29.8462 332.8L29.8923 332.854L29.9385 332.912L29.9846 332.974L30.0308 333.039L30.0769 333.108L30.1231 333.18L30.1693 333.255L30.2154 333.332L30.2616 333.412L30.3077 333.494L30.3539 333.577L30.4 333.662L30.4462 333.748L30.4923 333.835L30.5385 333.922L30.5846 334.01L30.6308 334.098L30.6769 334.185L30.7231 334.272L30.7693 334.358L30.8154 334.442L30.8616 334.525L30.9077 334.607L30.9539 334.686L31 334.762L31.0462 334.837L31.0923 334.908L31.1385 334.976L31.1846 335.041L31.2308 335.102L31.2769 335.159L31.3231 335.212L31.3693 335.261L31.4154 335.306L31.4616 335.346L31.5077 335.382L31.5539 335.413L31.6 335.438L31.6462 335.459L31.6923 335.475L31.7385 335.486L31.7846 335.492L31.8308 335.492L31.8769 335.487L31.9231 335.478L31.9693 335.463L32.0154 335.443L32.0616 335.418L32.1077 335.388L32.1539 335.353L32.2 335.314L32.2462 335.27L32.2923 335.221L32.3385 335.169L32.3846 335.112L32.4308 335.052L32.4769 334.988L32.5231 334.92L32.5693 334.849L32.6154 334.776L32.6616 334.699L32.7077 334.621L32.7539 334.54L32.8 334.457L32.8462 334.373L32.8923 334.287L32.9385 334.201L32.9846 334.113L33.0308 334.026L33.0769 333.938L33.1231 333.85L33.1693 333.763L33.2154 333.677L33.2616 333.592L33.3077 333.508L33.3539 333.426L33.4 333.346L33.4462 333.268L33.4923 333.193L33.5385 333.121L33.5846 333.051L33.6308 332.985L33.6769 332.923L33.7231 332.864L33.7693 332.809L33.8154 332.758L33.8616 332.712L33.9077 332.67L33.9539 332.632L34 332.599L34.0462 332.571L34.0923 332.548L34.1385 332.531L34.1846 332.518L34.2308 332.51L34.2769 332.507L34.3231 332.51L34.3693 332.518L34.4154 332.531L34.4616 332.549L34.5077 332.572L34.5539 332.6L34.6 332.632L34.6462 332.67L34.6923 332.712L34.7385 332.759L34.7846 332.809L34.8308 332.864L34.8769 332.923L34.9231 332.986L34.9693 333.052L35.0154 333.121L35.0616 333.194L35.1077 333.269L35.1539 333.347L35.2 333.427L35.2462 333.509L35.2923 333.593L35.3385 333.678L35.3846 333.764L35.4308 333.851L35.4769 333.939L35.5231 334.026L35.5693 334.114L35.6154 334.201L35.6616 334.288L35.7077 334.374L35.7539 334.458L35.8 334.541L35.8462 334.621L35.8923 334.7L35.9385 334.776L35.9846 334.85L36.0308 334.921L36.0769 334.988L36.1231 335.052L36.1693 335.113L36.2154 335.169L36.2616 335.222L36.3077 335.27L36.3539 335.314L36.4 335.353L36.4462 335.388L36.4923 335.418L36.5385 335.443L36.5846 335.463L36.6308 335.478L36.6769 335.487L36.7231 335.492L36.7693 335.492L36.8154 335.486L36.8616 335.475L36.9077 335.459L36.9539 335.438L37 335.412L37.0462 335.382L37.0923 335.346L37.1385 335.306L37.1846 335.261L37.2308 335.212L37.2769 335.158L37.3231 335.101L37.3693 335.04L37.4154 334.975L37.4616 334.907L37.5077 334.836L37.5539 334.762L37.6 334.685L37.6462 334.606L37.6923 334.525L37.7385 334.442L37.7846 334.357L37.8308 334.271L37.8769 334.184L37.9231 334.097L37.9693 334.009L38.0154 333.922L38.0616 333.834L38.1077 333.747L38.1539 333.661L38.2 333.576L38.2462 333.493L38.2923 333.411L38.3385 333.332L38.3846 333.254L38.4308 333.18L38.4769 333.108L38.5231 333.039L38.5693 332.973L38.6154 332.912L38.6616 332.853L38.7077 332.799L38.7539 332.749L38.8 332.703L38.8462 332.662L38.8923 332.626L38.9385 332.594L38.9846 332.567L39.0308 332.545L39.0769 332.528L39.1231 332.516L39.1693 332.509L39.2154 332.508L39.2616 332.511L39.3077 332.52L39.3539 332.534L39.4 332.553L39.4462 332.576L39.4923 332.605L39.5385 332.639L39.5846 332.677L39.6308 332.72L39.6769 332.768L39.7231 332.819L39.7693 332.875L39.8154 332.935L39.8616 332.998L39.9077 333.065L39.9539 333.135L40 333.208L40.0462 333.283L40.0923 333.362L40.1385 333.442L40.1846 333.524L40.2308 333.608L40.2769 333.694L40.3231 333.78L40.3693 333.867L40.4154 333.955L40.4616 334.043L40.5077 334.13L40.5539 334.218L40.6 334.304L40.6462 334.389L40.6923 334.473L40.7385 334.556L40.7846 334.636L40.8308 334.715L40.8769 334.79L40.9231 334.863L40.9693 334.933L41.0154 335L41.0616 335.064L41.1077 335.123L41.1539 335.179L41.2 335.231L41.2462 335.278L41.2923 335.322L41.3385 335.36L41.3846 335.394L41.4308 335.423L41.4769 335.447L41.5231 335.466L41.5693 335.48L41.6154 335.489L41.6616 335.492L41.7077 335.491L41.7539 335.484L41.8 335.473L41.8462 335.456L41.8923 335.434L41.9385 335.407L41.9846 335.375L42.0308 335.339L42.0769 335.298L42.1231 335.252L42.1693 335.202L42.2154 335.148L42.2616 335.09L42.3077 335.028L42.3539 334.963L42.4 334.894L42.4462 334.822L42.4923 334.748L42.5385 334.67L42.5846 334.591L42.6308 334.509L42.6769 334.426L42.7231 334.341L42.7693 334.255L42.8154 334.168L42.8616 334.081L42.9077 333.993L42.9539 333.905L43 333.818L43.0462 333.731L43.0923 333.645L43.1385 333.561L43.1846 333.478L43.2308 333.396L43.2769 333.317L43.3231 333.24L43.3693 333.166L43.4154 333.095L43.4616 333.026L43.5077 332.962L43.5539 332.9L43.6 332.843L43.6462 332.79L43.6923 332.74L43.7385 332.695L43.7846 332.655L43.8308 332.619L43.8769 332.588L43.9231 332.562L43.9693 332.541L44.0154 332.525L44.0616 332.514L44.1077 332.508L44.1539 332.508L44.2 332.512L44.2462 332.522L44.2923 332.537L44.3385 332.557L44.3846 332.581L44.4308 332.611L44.4769 332.646L44.5231 332.685L44.5693 332.729L44.6154 332.777L44.6616 332.829L44.7077 332.886L44.7539 332.946L44.8 333.01L44.8462 333.077L44.8923 333.148L44.9385 333.222L44.9846 333.298L45.0308 333.376L45.0769 333.457L45.1231 333.54L45.1693 333.624L45.2154 333.71L45.2616 333.796L45.3077 333.884L45.3539 333.971L45.4 334.059L45.4462 334.147L45.4923 334.234L45.5385 334.32L45.5846 334.405L45.6308 334.489L45.6769 334.571L45.7231 334.651L45.7693 334.729L45.8154 334.804L45.8616 334.877L45.9077 334.946L45.9539 335.012L46 335.075L46.0462 335.134L46.0923 335.189L46.1385 335.24L46.1846 335.287L46.2308 335.329L46.2769 335.367L46.3231 335.4L46.3693 335.428L46.4154 335.451L46.4616 335.469L46.5077 335.482L46.5539 335.49L46.6 335.493L46.6462 335.49L46.6923 335.483L46.7385 335.47L46.7846 335.452L46.8308 335.429L46.8769 335.401L46.9231 335.369L46.9693 335.332L47.0154 335.29L47.0616 335.243L47.1077 335.192L47.1539 335.138L47.2 335.079L47.2462 335.016L47.2923 334.95L47.3385 334.881L47.3846 334.809L47.4308 334.734L47.4769 334.656L47.5231 334.576L47.5693 334.494L47.6154 334.41L47.6616 334.325L47.7077 334.239L47.7539 334.152L47.8 334.064L47.8462 333.977L47.8923 333.889L47.9385 333.802L47.9846 333.715L48.0308 333.629L48.0769 333.545L48.1231 333.462L48.1693 333.381L48.2154 333.303L48.2616 333.226L48.3077 333.153L48.3539 333.082L48.4 333.014L48.4462 332.95L48.4923 332.889L48.5385 332.833L48.5846 332.78L48.6308 332.732L48.6769 332.688L48.7231 332.648L48.7693 332.613L48.8154 332.583L48.8616 332.558L48.9077 332.538L48.9539 332.523L49 332.513L49.0462 332.508L49.0923 332.508L49.1385 332.514L49.1846 332.524L49.2308 332.54L49.2769 332.561L49.3231 332.587L49.3693 332.617L49.4154 332.653L49.4616 332.693L49.5077 332.737L49.5539 332.786L49.6 332.84L49.6462 332.897L49.6923 332.958L49.7385 333.022L49.7846 333.09L49.8308 333.161L49.8769 333.236L49.9231 333.312L49.9693 333.391L50.0154 333.472L50.0616 333.555L50.1077 333.64L50.1539 333.726L50.2 333.812L50.2462 333.9L50.2923 333.988L50.3385 334.075L50.3846 334.163L50.4308 334.25L50.4769 334.336L50.5231 334.421L50.5693 334.504L50.6154 334.586L50.6616 334.666L50.7077 334.743L50.7539 334.818L50.8 334.89L50.8462 334.959L50.8923 335.024L50.9385 335.086L50.9846 335.145L51.0308 335.199L51.0769 335.249L51.1231 335.295L51.1693 335.336L51.2154 335.373L51.2616 335.405L51.3077 335.432L51.3539 335.455L51.4 335.472L51.4462 335.484L51.4923 335.491L51.5385 335.492L51.5846 335.489L51.6308 335.481L51.6769 335.467L51.7231 335.448L51.7693 335.424L51.8154 335.396L51.8616 335.362L51.9077 335.324L51.9539 335.281L52 335.234L52.0462 335.183L52.0923 335.127L52.1385 335.068L52.1846 335.004L52.2308 334.938L52.2769 334.868L52.3231 334.795L52.3693 334.719L52.4154 334.641L52.4616 334.561L52.5077 334.479L52.5539 334.395L52.6 334.309L52.6462 334.223L52.6923 334.136L52.7385 334.048L52.7846 333.96L52.8308 333.873L52.8769 333.786L52.9231 333.699L52.9693 333.614L53.0154 333.53L53.0616 333.447L53.1077 333.367L53.1539 333.288L53.2 333.212L53.2462 333.139L53.2923 333.069L53.3385 333.002L53.3846 332.938L53.4308 332.879L53.4769 332.823L53.5231 332.771L53.5693 332.723L53.6154 332.68L53.6616 332.641L53.7077 332.607L53.7539 332.578L53.8 332.554L53.8462 332.535L53.8923 332.521L53.9385 332.512L53.9846 332.508L54.0308 332.509L54.0769 332.515L54.1231 332.527L54.1693 332.544L54.2154 332.565L54.2616 332.592L54.3077 332.624L54.3539 332.66L54.4 332.701L54.4462 332.746L54.4923 332.796L54.5385 332.85L54.5846 332.908L54.6308 332.969L54.6769 333.035L54.7231 333.103L54.7693 333.175L54.8154 333.25L54.8616 333.327L54.9077 333.406L54.9539 333.488L55 333.571L55.0462 333.656L55.0923 333.742L55.1385 333.829L55.1846 333.916L55.2308 334.004L55.2769 334.092L55.3231 334.179L55.3693 334.266L55.4154 334.352L55.4616 334.436L55.5077 334.52L55.5539 334.601L55.6 334.68L55.6462 334.757L55.6923 334.831L55.7385 334.903L55.7846 334.971L55.8308 335.036L55.8769 335.097L55.9231 335.155L55.9693 335.209L56.0154 335.258L56.0616 335.303L56.1077 335.344L56.1539 335.379L56.2 335.411L56.2462 335.437L56.2923 335.458L56.3385 335.474L56.3846 335.485L56.4308 335.491L56.4769 335.492L56.5231 335.488L56.5693 335.478L56.6154 335.464L56.6616 335.444L56.7077 335.419L56.7539 335.39L56.8 335.356L56.8462 335.316L56.8923 335.273L56.9385 335.225L56.9846 335.173L57.0308 335.116L57.0769 335.056L57.1231 334.992L57.1693 334.925L57.2154 334.855L57.2616 334.781L57.3077 334.705L57.3539 334.626L57.4 334.546L57.4462 334.463L57.4923 334.379L57.5385 334.293L57.5846 334.207L57.6308 334.12L57.6769 334.032L57.7231 333.944L57.7693 333.856L57.8154 333.769L57.8616 333.683L57.9077 333.598L57.9539 333.514L58 333.432L58.0462 333.352L58.0923 333.274L58.1385 333.198L58.1846 333.126L58.2308 333.056L58.2769 332.99L58.3231 332.927L58.3693 332.868L58.4154 332.813L58.4616 332.762L58.5077 332.715L58.5539 332.672L58.6 332.635L58.6462 332.601L58.6923 332.573L58.7385 332.55L58.7846 332.532L58.8308 332.518L58.8769 332.51L58.9231 332.507L58.9693 332.51L59.0154 332.517L59.0616 332.53L59.1077 332.547L59.1539 332.57L59.2 332.597L59.2462 332.63L59.2923 332.667L59.3385 332.709L59.3846 332.755L59.4308 332.806L59.4769 332.86L59.5231 332.919L59.5693 332.981L59.6154 333.047L59.6616 333.116L59.7077 333.189L59.7539 333.264L59.8 333.341L59.8462 333.421L59.8923 333.503L59.9385 333.587L59.9846 333.672L60.0308 333.758L60.0769 333.845L60.1231 333.932L60.1693 334.02L60.2154 334.108L60.2616 334.195L60.3077 334.282L60.3539 334.368L60.4 334.452L60.4462 334.535L60.4923 334.616L60.5385 334.695L60.5846 334.771L60.6308 334.845L60.6769 334.916L60.7231 334.984L60.7693 335.048L60.8154 335.108L60.8616 335.165L60.9077 335.218L60.9539 335.267L61 335.311L61.0462 335.351L61.0923 335.386L61.1385 335.416L61.1846 335.441L61.2308 335.461L61.2769 335.477L61.3231 335.487L61.3693 335.492L61.4154 335.492L61.4616 335.487L61.5077 335.476L61.5539 335.461L61.6 335.44L61.6462 335.414L61.6923 335.384L61.7385 335.349L61.7846 335.309L61.8308 335.264L61.8769 335.215L61.9231 335.162L61.9693 335.105L62.0154 335.044L62.0616 334.98L62.1077 334.912L62.1539 334.841L62.2 334.767L62.2462 334.691L62.2923 334.612L62.3385 334.53L62.3846 334.448L62.4308 334.363L62.4769 334.277L62.5231 334.191L62.5693 334.103L62.6154 334.016L62.6616 333.928L62.7077 333.84L62.7539 333.753L62.8 333.667L62.8462 333.582L62.8923 333.499L62.9385 333.417L62.9846 333.337L63.0308 333.26L63.0769 333.185L63.1231 333.113L63.1693 333.044L63.2154 332.978L63.2616 332.916L63.3077 332.857L63.3539 332.803L63.4 332.753L63.4462 332.707L63.4923 332.665L63.5385 332.628L63.5846 332.596L63.6308 332.569L63.6769 332.546L63.7231 332.529L63.7693 332.517L63.8154 332.509L63.8616 332.507L63.9077 332.511L63.9539 332.519L64 332.533L64.0462 332.551L64.0923 332.575L64.1385 332.603L64.1846 332.636L64.2308 332.674L64.2769 332.717L64.3231 332.764L64.3693 332.816L64.4154 332.871L64.4616 332.93L64.5077 332.993L64.5539 333.06L64.6 333.13L64.6462 333.202L64.6923 333.278L64.7385 333.356L64.7846 333.436L64.8308 333.519L64.8769 333.602L64.9231 333.688L64.9693 333.774L65.0154 333.861L65.0616 333.949L65.1077 334.037L65.1539 334.124L65.2 334.211L65.2462 334.298L65.2923 334.383L65.3385 334.468L65.3846 334.55L65.4308 334.631L65.4769 334.709L65.5231 334.785L65.5693 334.858L65.6154 334.929L65.6616 334.996L65.7077 335.059L65.7539 335.119L65.8 335.175L65.8462 335.227L65.8923 335.275L65.9385 335.319L65.9846 335.357L66.0308 335.392L66.0769 335.421L66.1231 335.445L66.1693 335.465L66.2154 335.479L66.2616 335.488L66.3077 335.492L66.3539 335.491L66.4 335.485L66.4462 335.474L66.4923 335.457L66.5385 335.436L66.5846 335.409L66.6308 335.378L66.6769 335.342L66.7231 335.301L66.7693 335.255L66.8154 335.206L66.8616 335.152L66.9077 335.094L66.9539 335.033L67 334.968L67.0462 334.899L67.0923 334.828L67.1385 334.753L67.1846 334.676L67.2308 334.597L67.2769 334.515L67.3231 334.432L67.3693 334.347L67.4154 334.261L67.4616 334.174L67.5077 334.087L67.5539 333.999L67.6 333.911L67.6462 333.824L67.6923 333.737L67.7385 333.651L67.7846 333.567L67.8308 333.483L67.8769 333.402L67.9231 333.323L67.9693 333.246L68.0154 333.171L68.0616 333.1L68.1077 333.031L68.1539 332.966L68.2 332.905L68.2462 332.847L68.2923 332.793L68.3385 332.744L68.3846 332.698L68.4308 332.658L68.4769 332.622L68.5231 332.59L68.5693 332.564L68.6154 332.543L68.6616 332.526L68.7077 332.515L68.7539 332.509L68.8 332.508L68.8462 332.512L68.8923 332.521L68.9385 332.536L68.9846 332.555L69.0308 332.58L69.0769 332.609L69.1231 332.643L69.1693 332.682L69.2154 332.726L69.2616 332.773L69.3077 332.826L69.3539 332.882L69.4 332.942L69.4462 333.005L69.4923 333.073L69.5385 333.143L69.5846 333.216L69.6308 333.292L69.6769 333.371L69.7231 333.451L69.7693 333.534L69.8154 333.618L69.8616 333.704L69.9077 333.79L69.9539 333.877L70 333.965L70.0462 334.053L70.0923 334.14L70.1385 334.228L70.1846 334.314L70.2308 334.399L70.2769 334.483L70.3231 334.565L70.3693 334.645L70.4154 334.723L70.4616 334.799L70.5077 334.872L70.5539 334.941L70.6 335.008L70.6462 335.071L70.6923 335.13L70.7385 335.185L70.7846 335.237L70.8308 335.284L70.8769 335.326L70.9231 335.364L70.9693 335.397L71.0154 335.426L71.0616 335.449L71.1077 335.468L71.1539 335.481L71.2 335.489L71.2462 335.493L71.2923 335.49L71.3385 335.483L71.3846 335.471L71.4308 335.453L71.4769 335.431L71.5231 335.404L71.5693 335.371L71.6154 335.334L71.6616 335.293L71.7077 335.247L71.7539 335.196L71.8 335.142L71.8462 335.083L71.8923 335.021L71.9385 334.955L71.9846 334.886L72.0308 334.814" stroke="#02063B" stroke-miterlimit="10" stroke-linecap="round" stroke-linejoin="round"/>
</g>
</g>
<g id="boat 1" clip-path="url(#clip0_39_48)">
<g id="Group_3">
<path id="Vector_3" d="M302.15 328.695L299.86 334.84H265.382L264.335 330.231C264.335 330.231 292.468 331.698 302.15 328.695Z" fill="black"/>
<path id="Vector_4" d="M294.299 331.069L292.206 327.857L270.943 327.927L268.849 331.139L294.299 331.069Z" fill="black"/>
<path id="Vector_5" d="M276.144 319.933C276.896 319.933 276.994 323.179 276.994 323.179H275.294C275.294 323.179 275.392 319.933 276.144 319.933Z" fill="black"/>
<path id="Vector_6" d="M284.616 322.9L281.574 317H281.051L283.03 320.875L282.359 323.598L284.616 322.9Z" fill="black"/>
<path id="Vector_7" d="M284.878 325.832H274.737L273.233 327.997H286.121L284.878 325.832ZM274.018 322.9H284.616L287.757 328.207L269.657 329.899L274.018 322.9Z" fill="black"/>
<path id="Vector_8" d="M283.034 325.427H283.838V328.667H283.034V325.427Z" fill="black"/>
<path id="Vector_9" d="M280.546 325.427H281.349V328.667H280.546V325.427Z" fill="black"/>
<path id="Vector_10" d="M278.059 325.427H278.862V328.667H278.059V325.427Z" fill="black"/>
<path id="Vector_11" d="M275.571 325.427H276.374V328.667H275.571V325.427Z" fill="black"/>
</g>
</g>
<g id="fish" clip-path="url(#clip1_39_48)">
<g id="Group_4">
<path id="Vector_12" d="M274.305 382.819C272.849 380.48 268.218 377.693 263.983 378.19C261.866 376.448 260.763 376 260.763 376C260.763 376 258.954 377.991 259.263 379.783C260.057 380.231 261.425 379.634 261.425 379.634C261.425 379.634 259.528 380.878 258.249 380.729C256.97 380.579 254.014 376.398 253.485 377.891C253.441 379.534 254.058 381.326 253.75 381.724C253.441 382.123 251.941 384.014 253.353 384.412C254.764 384.811 257.234 382.869 258.249 383.367C259.263 383.865 259.616 384.213 259.616 384.213C259.616 384.213 258.293 383.915 257.808 383.865C257.322 383.815 258.249 389.589 262.88 385.557C263.365 385.607 263.983 385.657 263.983 385.657C263.983 385.657 262.351 386.652 262.792 387.249C263.233 387.847 264.204 388.693 265.836 385.955C269.364 386.154 275.261 384.357 274.305 382.819Z" fill="black"/>
</g>
</g>
</g>
<g id="packer">
<g id="left">
<rect id="rect_7" x="118" y="610" width="21" height="16" stroke="black"/>
<path id="Vector 38" d="M118 610L139 626" stroke="black"/>
<path id="Vector 39" d="M139 610L118 626" stroke="black"/>
</g>
<g id="right">
<rect id="rect_8" x="118" y="610" width="21" height="16" stroke="black"/>
<path id="Vector 38_2" d="M118 610L139 626" stroke="black"/>
<path id="Vector 39_2" d="M139 610L118 626" stroke="black"/>
</g>
<g id="right_2">
<rect id="rect_9" x="176" y="610" width="21" height="16" stroke="black"/>
<path id="Vector 38_3" d="M176 610L197 626" stroke="black"/>
<path id="Vector 39_3" d="M197 610L176 626" stroke="black"/>
</g>
</g>
<g id="packer_2">
<g id="left_2">
<rect id="rect_10" x="118" y="657" width="21" height="16" stroke="black"/>
<path id="Vector 38_4" d="M118 657L139 673" stroke="black"/>
<path id="Vector 39_4" d="M139 657L118 673" stroke="black"/>
</g>
<g id="right_3">
<rect id="rect_11" x="118" y="657" width="21" height="16" stroke="black"/>
<path id="Vector 38_5" d="M118 657L139 673" stroke="black"/>
<path id="Vector 39_5" d="M139 657L118 673" stroke="black"/>
</g>
<g id="right_4">
<rect id="rect_12" x="176" y="657" width="21" height="16" stroke="black"/>
<path id="Vector 38_6" d="M176 657L197 673" stroke="black"/>
<path id="Vector 39_6" d="M197 657L176 673" stroke="black"/>
</g>
</g>
<g id="perforations">
<path id="Polygon 11" d="M224.385 728.031L197.096 729.79L197.096 726.272L224.385 728.031Z" fill="black"/>
<path id="Polygon 14" d="M91 728.031L118.288 729.79L118.288 726.272L91 728.031Z" fill="black"/>
<path id="Polygon 12" d="M224.385 732.5L197.096 734.259L197.096 730.741L224.385 732.5Z" fill="black"/>
<path id="Polygon 15" d="M91 732.5L118.288 734.259L118.288 730.741L91 732.5Z" fill="black"/>
<path id="Polygon 13" d="M224.385 736.969L197.096 738.728L197.096 735.21L224.385 736.969Z" fill="black"/>
<path id="Polygon 16" d="M91 736.969L118.288 738.728L118.288 735.21L91 736.969Z" fill="black"/>
</g>
<g id="perforations_2">
<path id="Polygon 11_2" d="M224.385 637.031L197.096 638.79L197.096 635.272L224.385 637.031Z" fill="black"/>
<path id="Polygon 14_2" d="M91 637.031L118.288 638.79L118.288 635.272L91 637.031Z" fill="black"/>
<path id="Polygon 12_2" d="M224.385 641.5L197.096 643.259L197.096 639.741L224.385 641.5Z" fill="black"/>
<path id="Polygon 15_2" d="M91 641.5L118.288 643.259L118.288 639.741L91 641.5Z" fill="black"/>
<path id="Polygon 13_2" d="M224.385 645.969L197.096 647.728L197.096 644.21L224.385 645.969Z" fill="black"/>
<path id="Polygon 16_2" d="M91 645.969L118.288 647.728L118.288 644.21L91 645.969Z" fill="black"/>
</g>
<g id="fluid">
<circle id="Ellipse 2" cx="137" cy="723" r="3" fill="black"/>
<circle id="Ellipse 3" cx="152" cy="715" r="3" fill="black"/>
<circle id="Ellipse 4" cx="160" cy="732" r="3" fill="black"/>
<circle id="Ellipse 8" cx="159" cy="752" r="3" fill="black"/>
<circle id="Ellipse 7" cx="176" cy="739" r="3" fill="black"/>
<circle id="Ellipse 6" cx="144" cy="740" r="3" fill="black"/>
<circle id="Ellipse 5" cx="175" cy="715" r="3" fill="black"/>
</g>
<g id="fluid_2">
<circle id="Ellipse 2_2" cx="145.6" cy="634.867" r="1.6" fill="black"/>
<circle id="Ellipse 3_2" cx="153.6" cy="630.6" r="1.6" fill="black"/>
<circle id="Ellipse 4_2" cx="157.867" cy="639.667" r="1.6" fill="black"/>
<circle id="Ellipse 8_2" cx="157.333" cy="650.333" r="1.6" fill="black"/>
<circle id="Ellipse 7_2" cx="166.4" cy="643.4" r="1.6" fill="black"/>
<circle id="Ellipse 6_2" cx="149.333" cy="643.933" r="1.6" fill="black"/>
<circle id="Ellipse 5_2" cx="165.867" cy="630.6" r="1.6" fill="black"/>
</g>
<g id="cement-outside">
<path id="cement" d="M241.669 433C242.52 433.733 242.667 435.933 243.164 437.396C243.66 438.859 242.951 440.319 242.536 441.78C242.121 443.241 242 444.703 241.669 446.164C241.337 447.626 240.795 449.086 240.115 450.547C239.435 452.007 238.617 453.467 239.489 454.931C240.362 456.395 238.924 457.864 240.281 459.329C241.637 460.794 241.787 462.257 241.16 463.717C240.533 465.178 242.129 466.636 241.48 468.097C240.832 469.557 240.938 471.019 240.784 472.481C240.63 473.943 240.214 475.404 240.69 476.867C241.167 478.33 242.535 479.795 242.496 481.257C242.458 482.719 242.013 484.178 241.699 485.639C241.386 487.1 242.204 488.564 242.63 490.027C243.057 491.49 243.092 492.953 242.736 494.414C242.38 495.875 242.073 496.452 241.699 497.182L231.439 508.117" stroke="black"/>
<path id="cement_2" d="M230.736 507C231.587 507.787 230.666 511.235 231.163 512.805C231.659 514.375 230.95 515.942 230.534 517.51C230.119 519.078 229.998 520.647 229.666 522.215C229.335 523.783 228.792 525.351 228.112 526.918C227.432 528.486 226.613 530.053 227.485 531.624C228.357 533.195 226.92 534.771 228.276 536.344C229.632 537.916 229.782 539.485 229.154 541.052C228.527 542.62 230.123 544.185 229.474 545.753C228.825 547.32 228.932 548.889 228.777 550.458C228.622 552.026 228.206 553.594 228.682 555.165C229.158 556.735 228.526 558.308 228.488 559.876C228.449 561.445 228.004 563.011 227.69 564.579C227.376 566.147 228.194 567.718 228.62 569.288C229.046 570.858 229.081 572.427 228.725 573.996C228.368 575.563 227.622 577.131 227.248 577.914L223.987 583.748" stroke="black"/>
<path id="cement_3" d="M81.1833 507C80.3319 507.728 81.6799 510.919 81.1832 512.372C80.6864 513.825 81.3957 515.276 81.8107 516.727C82.2257 518.178 82.3464 519.629 82.6779 521.081C83.0094 522.532 83.5515 523.983 84.2316 525.433C84.9116 526.883 85.7296 528.333 84.8573 529.788C83.985 531.242 85.4224 532.7 84.066 534.155C82.7097 535.611 82.5595 537.063 83.1865 538.513C83.8134 539.964 82.2176 541.413 82.8662 542.863C83.5148 544.314 83.4079 545.766 83.5623 547.217C83.7167 548.669 84.1323 550.12 83.656 551.574C83.1797 553.027 83.8114 557.461 83.8498 558.913C83.8882 560.365 84.3333 561.814 84.6467 563.265C84.9602 564.716 84.142 566.17 83.7156 567.623C83.2891 569.077 83.2542 570.529 83.6101 571.98C83.966 573.431 84.7126 574.881 85.0859 575.606L90.3458 581.004" stroke="black"/>
<path id="cement_4" d="M90.5 581C89.6513 582.836 97.7795 592.405 97.2882 596.075C96.7969 599.745 97.5116 603.412 97.9321 607.08C98.3525 610.747 98.4787 614.416 98.8156 618.084C99.1525 621.751 99.7001 625.419 100.386 629.086C101.071 632.753 101.894 636.42 101.028 640.09C100.161 643.761 101.604 647.451 100.253 651.123C98.9018 654.795 98.757 658.464 99.3894 662.131C100.022 665.798 98.4314 669.453 99.0855 673.12C99.7395 676.787 99.6381 680.456 99.7979 684.124C99.9577 687.792 100.379 691.46 99.9079 695.13C99.437 698.8 100.085 710.007 100.129 713.676C100.173 717.344 100.624 721.006 100.942 724.674C101.261 728.342 100.449 732.013 100.028 735.682C99.6065 739.352 99.5771 743.021 99.9385 746.689C100.3 750.356 101.052 754.023 101.428 755.857L115 771" stroke="black"/>
<path id="cement_5" d="M223.5 584.059C224.349 585.895 216.22 595.464 216.712 599.134C217.203 602.804 216.488 606.471 216.068 610.139C215.648 613.806 215.521 617.475 215.184 621.143C214.848 624.81 214.3 628.478 213.614 632.145C212.929 635.812 212.106 639.479 212.972 643.149C213.839 646.82 212.396 650.51 213.747 654.182C215.098 657.854 215.243 661.523 214.611 665.19C213.978 668.857 215.569 672.512 214.915 676.179C214.26 679.846 214.362 683.515 214.202 687.183C214.042 690.851 213.621 694.519 214.092 698.189C214.563 701.859 213.915 713.066 213.871 716.734C213.827 720.403 213.376 724.065 213.058 727.733C212.739 731.401 213.551 735.072 213.972 738.741C214.393 742.411 214.423 746.08 214.062 749.748C213.7 753.415 212.948 757.082 212.572 758.916L199 774.059" stroke="black"/>
<path id="cement_6" d="M72.6783 434.013C71.8269 434.747 71.6801 436.946 71.1834 438.409C70.6867 439.872 71.396 441.333 71.811 442.794C72.226 444.255 72.3468 445.716 72.6783 447.178C73.0098 448.639 73.5519 450.099 74.232 451.56C74.9121 453.02 75.7301 454.48 74.8578 455.944C73.9856 457.408 75.423 458.877 74.0666 460.342C72.7103 461.807 72.5601 463.27 73.1871 464.73C73.8141 466.191 72.2183 467.649 72.867 469.11C73.5156 470.57 73.4087 472.033 73.5631 473.494C73.7175 474.956 74.1332 476.417 73.6569 477.88C73.1806 479.343 71.8124 480.809 71.8508 482.27C71.8892 483.732 72.3343 485.191 72.6478 486.652C72.9613 488.113 72.1432 489.578 71.7167 491.04C71.2902 492.504 71.2555 493.966 71.6114 495.427C71.9673 496.888 72.7139 498.348 73.0873 499.078L81 508.5" stroke="black"/>
</g>
</g>
<defs>
<clipPath id="clip0_39_48">
<rect width="38.15" height="18" fill="white" transform="matrix(-1 0 0 1 302.15 317)"/>
</clipPath>
<clipPath id="clip1_39_48">
<rect width="21.8" height="12" fill="white" transform="matrix(-1 0 0 1 274.408 376)"/>
</clipPath>
</defs>
</svg>
